G04 #@! TF.GenerationSoftware,KiCad,Pcbnew,(5.1.6-0)*
G04 #@! TF.CreationDate,2021-01-26T11:22:00+01:00*
G04 #@! TF.ProjectId,BAL,42414c2e-6b69-4636-9164-5f7063625858,rev?*
G04 #@! TF.SameCoordinates,PX70a3730PY8670810*
G04 #@! TF.FileFunction,Copper,L1,Top*
G04 #@! TF.FilePolarity,Positive*
%FSLAX46Y46*%
G04 Gerber Fmt 4.6, Leading zero omitted, Abs format (unit mm)*
G04 Created by KiCad (PCBNEW (5.1.6-0)) date 2021-01-26 11:22:00*
%MOMM*%
%LPD*%
G01*
G04 APERTURE LIST*
G04 #@! TA.AperFunction,NonConductor*
%ADD10C,0.200000*%
G04 #@! TD*
G04 #@! TA.AperFunction,ComponentPad*
%ADD11O,1.700000X1.700000*%
G04 #@! TD*
G04 #@! TA.AperFunction,ComponentPad*
%ADD12R,1.700000X1.700000*%
G04 #@! TD*
G04 #@! TA.AperFunction,ComponentPad*
%ADD13C,1.600000*%
G04 #@! TD*
G04 #@! TA.AperFunction,ComponentPad*
%ADD14C,1.700000*%
G04 #@! TD*
G04 #@! TA.AperFunction,ComponentPad*
%ADD15O,1.600000X1.600000*%
G04 #@! TD*
G04 #@! TA.AperFunction,ComponentPad*
%ADD16R,1.600000X1.600000*%
G04 #@! TD*
G04 #@! TA.AperFunction,ComponentPad*
%ADD17C,1.800000*%
G04 #@! TD*
G04 #@! TA.AperFunction,ComponentPad*
%ADD18R,1.800000X1.800000*%
G04 #@! TD*
G04 #@! TA.AperFunction,ComponentPad*
%ADD19C,1.500000*%
G04 #@! TD*
G04 #@! TA.AperFunction,ComponentPad*
%ADD20R,1.500000X1.500000*%
G04 #@! TD*
G04 #@! TA.AperFunction,ComponentPad*
%ADD21C,2.000000*%
G04 #@! TD*
G04 #@! TA.AperFunction,Conductor*
%ADD22C,0.600000*%
G04 #@! TD*
G04 #@! TA.AperFunction,Conductor*
%ADD23C,1.000000*%
G04 #@! TD*
G04 #@! TA.AperFunction,Conductor*
%ADD24C,0.500000*%
G04 #@! TD*
G04 APERTURE END LIST*
D10*
X36068095Y63357143D02*
X37591904Y63357143D01*
X36830000Y62595239D02*
X36830000Y64119048D01*
D11*
X6350000Y55880000D03*
D12*
X6350000Y53340000D03*
D11*
X40640000Y63500000D03*
X40640000Y66040000D03*
D12*
X40640000Y68580000D03*
D13*
X34290000Y50720000D03*
X34290000Y45720000D03*
D11*
X13970000Y63500000D03*
X13970000Y66040000D03*
X13970000Y68580000D03*
D12*
X13970000Y71120000D03*
D11*
X6350000Y69850000D03*
X6350000Y67310000D03*
D12*
X6350000Y64770000D03*
D14*
X12700000Y27940000D03*
X12700000Y10160000D03*
X12700000Y12700000D03*
X12700000Y15240000D03*
X12700000Y17780000D03*
X12700000Y20320000D03*
X12700000Y22860000D03*
X12700000Y25400000D03*
X35560000Y27940000D03*
X35560000Y25400000D03*
X35560000Y22860000D03*
X35560000Y20320000D03*
X35560000Y17780000D03*
X35560000Y15240000D03*
D12*
X35560000Y12700000D03*
D15*
X27940000Y68580000D03*
X20320000Y35560000D03*
X27940000Y66040000D03*
X20320000Y38100000D03*
X27940000Y63500000D03*
X20320000Y40640000D03*
X27940000Y60960000D03*
X20320000Y43180000D03*
X27940000Y58420000D03*
X20320000Y45720000D03*
X27940000Y55880000D03*
X20320000Y48260000D03*
X27940000Y53340000D03*
X20320000Y50800000D03*
X27940000Y50800000D03*
X20320000Y53340000D03*
X27940000Y48260000D03*
X20320000Y55880000D03*
X27940000Y45720000D03*
X20320000Y58420000D03*
X27940000Y43180000D03*
X20320000Y60960000D03*
X27940000Y40640000D03*
X20320000Y63500000D03*
X27940000Y38100000D03*
X20320000Y66040000D03*
X27940000Y35560000D03*
D16*
X20320000Y68580000D03*
D15*
X12700000Y45720000D03*
D13*
X12700000Y53340000D03*
D17*
X7620000Y38100000D03*
D18*
X5080000Y38100000D03*
D19*
X41910000Y40640000D03*
X39370000Y40640000D03*
X36830000Y40640000D03*
D20*
X34290000Y40640000D03*
D11*
X36830000Y76200000D03*
D12*
X34290000Y76200000D03*
D21*
X21590000Y85240000D03*
X26090000Y85240000D03*
X21590000Y78740000D03*
X26090000Y78740000D03*
D15*
X13970000Y85090000D03*
D13*
X13970000Y77470000D03*
D15*
X34290000Y33020000D03*
D13*
X41910000Y33020000D03*
D22*
X27940000Y50800000D02*
X27940000Y48260000D01*
X29210000Y50800000D02*
X30480000Y49530000D01*
X27940000Y50800000D02*
X29210000Y50800000D01*
D23*
X20320000Y53659998D02*
X20320000Y53340000D01*
D22*
X16829998Y57150000D02*
X20320000Y53659998D01*
X10160000Y59690000D02*
X12700000Y57150000D01*
X12700000Y57150000D02*
X16829998Y57150000D01*
X6350000Y67310000D02*
X8890000Y67310000D01*
X10160000Y66040000D02*
X10160000Y59690000D01*
X8890000Y67310000D02*
X10160000Y66040000D01*
X12700000Y71120000D02*
X8890000Y67310000D01*
X13970000Y71120000D02*
X12700000Y71120000D01*
X34290000Y40640000D02*
X34290000Y45720000D01*
X35560000Y20861998D02*
X35560000Y20320000D01*
X25400000Y53340000D02*
X27940000Y50800000D01*
X20320000Y53340000D02*
X25400000Y53340000D01*
X13970000Y77470000D02*
X13970000Y71120000D01*
X30480000Y49530000D02*
X34290000Y45720000D01*
X35560000Y20320000D02*
X39370000Y24130000D01*
X39370000Y27940000D02*
X34290000Y33020000D01*
X39370000Y26670000D02*
X39370000Y27940000D01*
X39370000Y24130000D02*
X39370000Y26670000D01*
X25400000Y68580000D02*
X25400000Y53340000D01*
X29210000Y72390000D02*
X25400000Y68580000D01*
X31750000Y72390000D02*
X29210000Y72390000D01*
X40640000Y63500000D02*
X31750000Y72390000D01*
X17780000Y53340000D02*
X20320000Y50800000D01*
X12700000Y53340000D02*
X17780000Y53340000D01*
X5080000Y38100000D02*
X5080000Y41910000D01*
X8890000Y45720000D02*
X12700000Y45720000D01*
X5080000Y41910000D02*
X8890000Y45720000D01*
X21590000Y85240000D02*
X21590000Y78740000D01*
X20320000Y68580000D02*
X20320000Y69850000D01*
X22589999Y72119999D02*
X22589999Y77740001D01*
X22589999Y77740001D02*
X21590000Y78740000D01*
X20320000Y69850000D02*
X22589999Y72119999D01*
X14120000Y85240000D02*
X13970000Y85090000D01*
X21590000Y85240000D02*
X14120000Y85240000D01*
X9349990Y29449326D02*
X15460664Y35560000D01*
X9349989Y20932009D02*
X9349990Y29449326D01*
X15460664Y35560000D02*
X20320000Y35560000D01*
X12501998Y17780000D02*
X9349989Y20932009D01*
D23*
X12700000Y17780000D02*
X12501998Y17780000D01*
D22*
X21184001Y33759999D02*
X22860000Y35435998D01*
X15781997Y33759999D02*
X21184001Y33759999D01*
X10849999Y21971999D02*
X10849999Y28828001D01*
X10849999Y28828001D02*
X15781997Y33759999D01*
X12501998Y20320000D02*
X10849999Y21971999D01*
D23*
X12700000Y20320000D02*
X12501998Y20320000D01*
D22*
X22860000Y35435998D02*
X22860000Y43180000D01*
X25400000Y45720000D02*
X27940000Y45720000D01*
X22860000Y43180000D02*
X25400000Y45720000D01*
D23*
X12700000Y25400000D02*
X12824002Y25400000D01*
D22*
X14945336Y25400000D02*
X24360010Y34814674D01*
X12700000Y25400000D02*
X14945336Y25400000D01*
X24360010Y34814674D02*
X24360010Y42140010D01*
X25400000Y43180000D02*
X27940000Y43180000D01*
X24360010Y42140010D02*
X25400000Y43180000D01*
X26808630Y40640000D02*
X27940000Y40640000D01*
X26139999Y39971369D02*
X26808630Y40640000D01*
X26139999Y34473329D02*
X26139999Y39971369D01*
X14526670Y22860000D02*
X26139999Y34473329D01*
X12700000Y22860000D02*
X14526670Y22860000D01*
X12700000Y43180000D02*
X20320000Y43180000D01*
X7620000Y38100000D02*
X12700000Y43180000D01*
X27940000Y29277919D02*
X27940000Y35560000D01*
X13902081Y15240000D02*
X27940000Y29277919D01*
X12700000Y15240000D02*
X13902081Y15240000D01*
X15879330Y38100000D02*
X20320000Y38100000D01*
X7849981Y30070651D02*
X15879330Y38100000D01*
X16206586Y8309999D02*
X11811999Y8309999D01*
X7849981Y12272017D02*
X7849981Y30070651D01*
X11811999Y8309999D02*
X7849981Y12272017D01*
X33296587Y25400000D02*
X16206586Y8309999D01*
X35560000Y25400000D02*
X33296587Y25400000D01*
D24*
X20320000Y39950002D02*
X20320000Y40640000D01*
D22*
X11190674Y6809990D02*
X6349971Y11650693D01*
X18307908Y6809989D02*
X11190674Y6809990D01*
X34357919Y22860000D02*
X18307908Y6809989D01*
X35560000Y22860000D02*
X34357919Y22860000D01*
X16297996Y40640000D02*
X20320000Y40640000D01*
X6349972Y30691976D02*
X16297996Y40640000D01*
X6349971Y11650693D02*
X6349972Y30691976D01*
X33020000Y55880000D02*
X27940000Y55880000D01*
X36830000Y52070000D02*
X33020000Y55880000D01*
X36830000Y40640000D02*
X36830000Y52070000D01*
X36830000Y38100000D02*
X41910000Y33020000D01*
X36830000Y40640000D02*
X36830000Y38100000D01*
X6350000Y64770000D02*
X6350000Y55880000D01*
X20320000Y63500000D02*
X13970000Y63500000D01*
X13970000Y66040000D02*
X20320000Y66040000D01*
X33158616Y27940000D02*
X35560000Y27940000D01*
X30480000Y30480000D02*
X33158616Y27940000D01*
X30480000Y35560000D02*
X30480000Y30480000D01*
X27940000Y38100000D02*
X30480000Y35560000D01*
X39370000Y66040000D02*
X40640000Y66040000D01*
X36830000Y68580000D02*
X39370000Y66040000D01*
X36830000Y76200000D02*
X36830000Y68580000D01*
X24130000Y64770000D02*
X20320000Y60960000D01*
X24130000Y71120000D02*
X24130000Y64770000D01*
X29210000Y76200000D02*
X24130000Y71120000D01*
X34290000Y76200000D02*
X29210000Y76200000D01*
D24*
G36*
X45220001Y500000D02*
G01*
X500000Y500000D01*
X500000Y4034562D01*
X1529981Y4034562D01*
X1529981Y3585438D01*
X1617601Y3144943D01*
X1789473Y2730006D01*
X2038994Y2356573D01*
X2356573Y2038994D01*
X2730006Y1789473D01*
X3144943Y1617601D01*
X3585438Y1529981D01*
X4034562Y1529981D01*
X4475057Y1617601D01*
X4889994Y1789473D01*
X5263427Y2038994D01*
X5581006Y2356573D01*
X5830527Y2730006D01*
X6002399Y3144943D01*
X6090019Y3585438D01*
X6090019Y4034562D01*
X39629981Y4034562D01*
X39629981Y3585438D01*
X39717601Y3144943D01*
X39889473Y2730006D01*
X40138994Y2356573D01*
X40456573Y2038994D01*
X40830006Y1789473D01*
X41244943Y1617601D01*
X41685438Y1529981D01*
X42134562Y1529981D01*
X42575057Y1617601D01*
X42989994Y1789473D01*
X43363427Y2038994D01*
X43681006Y2356573D01*
X43930527Y2730006D01*
X44102399Y3144943D01*
X44190019Y3585438D01*
X44190019Y4034562D01*
X44102399Y4475057D01*
X43930527Y4889994D01*
X43681006Y5263427D01*
X43363427Y5581006D01*
X42989994Y5830527D01*
X42575057Y6002399D01*
X42134562Y6090019D01*
X41685438Y6090019D01*
X41244943Y6002399D01*
X40830006Y5830527D01*
X40456573Y5581006D01*
X40138994Y5263427D01*
X39889473Y4889994D01*
X39717601Y4475057D01*
X39629981Y4034562D01*
X6090019Y4034562D01*
X6002399Y4475057D01*
X5830527Y4889994D01*
X5581006Y5263427D01*
X5263427Y5581006D01*
X4889994Y5830527D01*
X4475057Y6002399D01*
X4034562Y6090019D01*
X3585438Y6090019D01*
X3144943Y6002399D01*
X2730006Y5830527D01*
X2356573Y5581006D01*
X2038994Y5263427D01*
X1789473Y4889994D01*
X1617601Y4475057D01*
X1529981Y4034562D01*
X500000Y4034562D01*
X500000Y11650693D01*
X5596344Y11650693D01*
X5599971Y11613866D01*
X5599971Y11613859D01*
X5610824Y11503668D01*
X5653710Y11362293D01*
X5723352Y11232001D01*
X5817076Y11117799D01*
X5845685Y11094320D01*
X10634304Y6305700D01*
X10657779Y6277096D01*
X10686382Y6253622D01*
X10686390Y6253614D01*
X10771981Y6183371D01*
X10902273Y6113729D01*
X11043648Y6070843D01*
X11190674Y6056363D01*
X11227512Y6059991D01*
X18271080Y6059989D01*
X18307908Y6056362D01*
X18344735Y6059989D01*
X18344742Y6059989D01*
X18454933Y6070842D01*
X18596308Y6113728D01*
X18726600Y6183370D01*
X18840802Y6277094D01*
X18864281Y6305703D01*
X34570050Y22011472D01*
X34731298Y21850224D01*
X34944219Y21707955D01*
X35180804Y21609958D01*
X35281140Y21590000D01*
X35180804Y21570042D01*
X34944219Y21472045D01*
X34731298Y21329776D01*
X34550224Y21148702D01*
X34407955Y20935781D01*
X34309958Y20699196D01*
X34260000Y20448039D01*
X34260000Y20191961D01*
X34309958Y19940804D01*
X34407955Y19704219D01*
X34550224Y19491298D01*
X34731298Y19310224D01*
X34944219Y19167955D01*
X35180804Y19069958D01*
X35281140Y19050000D01*
X35180804Y19030042D01*
X34944219Y18932045D01*
X34731298Y18789776D01*
X34550224Y18608702D01*
X34407955Y18395781D01*
X34309958Y18159196D01*
X34260000Y17908039D01*
X34260000Y17651961D01*
X34309958Y17400804D01*
X34407955Y17164219D01*
X34550224Y16951298D01*
X34731298Y16770224D01*
X34944219Y16627955D01*
X35180804Y16529958D01*
X35281140Y16510000D01*
X35180804Y16490042D01*
X34944219Y16392045D01*
X34731298Y16249776D01*
X34550224Y16068702D01*
X34407955Y15855781D01*
X34309958Y15619196D01*
X34260000Y15368039D01*
X34260000Y15111961D01*
X34309958Y14860804D01*
X34407955Y14624219D01*
X34550224Y14411298D01*
X34731298Y14230224D01*
X34944219Y14087955D01*
X35180804Y13989958D01*
X35431961Y13940000D01*
X35688039Y13940000D01*
X35939196Y13989958D01*
X36175781Y14087955D01*
X36388702Y14230224D01*
X36569776Y14411298D01*
X36712045Y14624219D01*
X36810042Y14860804D01*
X36860000Y15111961D01*
X36860000Y15368039D01*
X36810042Y15619196D01*
X36712045Y15855781D01*
X36569776Y16068702D01*
X36388702Y16249776D01*
X36175781Y16392045D01*
X35939196Y16490042D01*
X35838860Y16510000D01*
X35939196Y16529958D01*
X36175781Y16627955D01*
X36388702Y16770224D01*
X36569776Y16951298D01*
X36712045Y17164219D01*
X36810042Y17400804D01*
X36860000Y17651961D01*
X36860000Y17908039D01*
X36810042Y18159196D01*
X36712045Y18395781D01*
X36569776Y18608702D01*
X36388702Y18789776D01*
X36175781Y18932045D01*
X35939196Y19030042D01*
X35838860Y19050000D01*
X35939196Y19069958D01*
X36175781Y19167955D01*
X36388702Y19310224D01*
X36569776Y19491298D01*
X36712045Y19704219D01*
X36810042Y19940804D01*
X36860000Y20191961D01*
X36860000Y20448039D01*
X36841534Y20540875D01*
X39874287Y23573627D01*
X39902895Y23597105D01*
X39996619Y23711307D01*
X40066261Y23841599D01*
X40109147Y23982974D01*
X40120000Y24093165D01*
X40120000Y24093172D01*
X40123627Y24130000D01*
X40120000Y24166828D01*
X40120000Y27903173D01*
X40123627Y27940000D01*
X40120000Y27976828D01*
X40120000Y27976835D01*
X40109147Y28087026D01*
X40066261Y28228401D01*
X39996619Y28358693D01*
X39902895Y28472895D01*
X39874286Y28496374D01*
X35529012Y32841647D01*
X35540000Y32896886D01*
X35540000Y33143114D01*
X35491963Y33384611D01*
X35397735Y33612097D01*
X35260938Y33816828D01*
X35086828Y33990938D01*
X34882097Y34127735D01*
X34654611Y34221963D01*
X34413114Y34270000D01*
X34166886Y34270000D01*
X33925389Y34221963D01*
X33697903Y34127735D01*
X33493172Y33990938D01*
X33319062Y33816828D01*
X33182265Y33612097D01*
X33088037Y33384611D01*
X33040000Y33143114D01*
X33040000Y32896886D01*
X33088037Y32655389D01*
X33182265Y32427903D01*
X33319062Y32223172D01*
X33493172Y32049062D01*
X33697903Y31912265D01*
X33925389Y31818037D01*
X34166886Y31770000D01*
X34413114Y31770000D01*
X34468353Y31780988D01*
X38620001Y27629339D01*
X38620000Y26633166D01*
X38620001Y26633156D01*
X38620000Y24440660D01*
X36847262Y22667921D01*
X36860000Y22731961D01*
X36860000Y22988039D01*
X36810042Y23239196D01*
X36712045Y23475781D01*
X36569776Y23688702D01*
X36388702Y23869776D01*
X36175781Y24012045D01*
X35939196Y24110042D01*
X35838860Y24130000D01*
X35939196Y24149958D01*
X36175781Y24247955D01*
X36388702Y24390224D01*
X36569776Y24571298D01*
X36712045Y24784219D01*
X36810042Y25020804D01*
X36860000Y25271961D01*
X36860000Y25528039D01*
X36810042Y25779196D01*
X36712045Y26015781D01*
X36569776Y26228702D01*
X36388702Y26409776D01*
X36175781Y26552045D01*
X35939196Y26650042D01*
X35838860Y26670000D01*
X35939196Y26689958D01*
X36175781Y26787955D01*
X36388702Y26930224D01*
X36569776Y27111298D01*
X36712045Y27324219D01*
X36810042Y27560804D01*
X36860000Y27811961D01*
X36860000Y28068039D01*
X36810042Y28319196D01*
X36712045Y28555781D01*
X36569776Y28768702D01*
X36388702Y28949776D01*
X36175781Y29092045D01*
X35939196Y29190042D01*
X35688039Y29240000D01*
X35431961Y29240000D01*
X35180804Y29190042D01*
X34944219Y29092045D01*
X34731298Y28949776D01*
X34550224Y28768702D01*
X34497637Y28690000D01*
X33457673Y28690000D01*
X31230000Y30802391D01*
X31230000Y35523176D01*
X31233627Y35560001D01*
X31230000Y35596826D01*
X31230000Y35596835D01*
X31219147Y35707026D01*
X31176261Y35848401D01*
X31106619Y35978693D01*
X31095391Y35992374D01*
X31036376Y36064285D01*
X31036369Y36064292D01*
X31012895Y36092895D01*
X30984292Y36116369D01*
X29179012Y37921647D01*
X29190000Y37976886D01*
X29190000Y38223114D01*
X29141963Y38464611D01*
X29047735Y38692097D01*
X28910938Y38896828D01*
X28736828Y39070938D01*
X28532097Y39207735D01*
X28304611Y39301963D01*
X28063114Y39350000D01*
X27816886Y39350000D01*
X27575389Y39301963D01*
X27347903Y39207735D01*
X27143172Y39070938D01*
X26969062Y38896828D01*
X26889999Y38778502D01*
X26889999Y39660710D01*
X27020762Y39791472D01*
X27143172Y39669062D01*
X27347903Y39532265D01*
X27575389Y39438037D01*
X27816886Y39390000D01*
X28063114Y39390000D01*
X28304611Y39438037D01*
X28532097Y39532265D01*
X28736828Y39669062D01*
X28910938Y39843172D01*
X29047735Y40047903D01*
X29141963Y40275389D01*
X29190000Y40516886D01*
X29190000Y40763114D01*
X29141963Y41004611D01*
X29047735Y41232097D01*
X28910938Y41436828D01*
X28736828Y41610938D01*
X28532097Y41747735D01*
X28304611Y41841963D01*
X28063114Y41890000D01*
X27816886Y41890000D01*
X27575389Y41841963D01*
X27347903Y41747735D01*
X27143172Y41610938D01*
X26969062Y41436828D01*
X26937773Y41390000D01*
X26845457Y41390000D01*
X26808629Y41393627D01*
X26771802Y41390000D01*
X26771795Y41390000D01*
X26661604Y41379147D01*
X26520229Y41336261D01*
X26389937Y41266619D01*
X26275735Y41172895D01*
X26252256Y41144286D01*
X25635714Y40527743D01*
X25607105Y40504264D01*
X25583626Y40475655D01*
X25583623Y40475652D01*
X25556130Y40442151D01*
X25513381Y40390062D01*
X25492823Y40351600D01*
X25443738Y40259769D01*
X25400852Y40118394D01*
X25386372Y39971369D01*
X25390000Y39934532D01*
X25389999Y34783990D01*
X24916324Y34310315D01*
X24921298Y34316375D01*
X24986629Y34395981D01*
X25056271Y34526273D01*
X25099157Y34667648D01*
X25108565Y34763172D01*
X25110010Y34777839D01*
X25110010Y34777846D01*
X25113637Y34814674D01*
X25110010Y34851502D01*
X25110010Y41829351D01*
X25710660Y42430000D01*
X26937773Y42430000D01*
X26969062Y42383172D01*
X27143172Y42209062D01*
X27347903Y42072265D01*
X27575389Y41978037D01*
X27816886Y41930000D01*
X28063114Y41930000D01*
X28304611Y41978037D01*
X28532097Y42072265D01*
X28736828Y42209062D01*
X28910938Y42383172D01*
X29047735Y42587903D01*
X29141963Y42815389D01*
X29190000Y43056886D01*
X29190000Y43303114D01*
X29141963Y43544611D01*
X29047735Y43772097D01*
X28910938Y43976828D01*
X28736828Y44150938D01*
X28532097Y44287735D01*
X28304611Y44381963D01*
X28063114Y44430000D01*
X27816886Y44430000D01*
X27575389Y44381963D01*
X27347903Y44287735D01*
X27143172Y44150938D01*
X26969062Y43976828D01*
X26937773Y43930000D01*
X25436827Y43930000D01*
X25400000Y43933627D01*
X25363172Y43930000D01*
X25363165Y43930000D01*
X25252974Y43919147D01*
X25111599Y43876261D01*
X24981307Y43806619D01*
X24867105Y43712895D01*
X24843626Y43684286D01*
X23855725Y42696384D01*
X23827116Y42672905D01*
X23803637Y42644296D01*
X23803634Y42644293D01*
X23786672Y42623624D01*
X23733392Y42558703D01*
X23721588Y42536619D01*
X23663749Y42428410D01*
X23620863Y42287035D01*
X23610000Y42176736D01*
X23610000Y42869341D01*
X25710661Y44970000D01*
X26937773Y44970000D01*
X26969062Y44923172D01*
X27143172Y44749062D01*
X27347903Y44612265D01*
X27575389Y44518037D01*
X27816886Y44470000D01*
X28063114Y44470000D01*
X28304611Y44518037D01*
X28532097Y44612265D01*
X28736828Y44749062D01*
X28910938Y44923172D01*
X29047735Y45127903D01*
X29141963Y45355389D01*
X29190000Y45596886D01*
X29190000Y45843114D01*
X29141963Y46084611D01*
X29047735Y46312097D01*
X28910938Y46516828D01*
X28736828Y46690938D01*
X28532097Y46827735D01*
X28304611Y46921963D01*
X28063114Y46970000D01*
X27816886Y46970000D01*
X27575389Y46921963D01*
X27347903Y46827735D01*
X27143172Y46690938D01*
X26969062Y46516828D01*
X26937773Y46470000D01*
X25436824Y46470000D01*
X25399999Y46473627D01*
X25363174Y46470000D01*
X25363165Y46470000D01*
X25252974Y46459147D01*
X25111599Y46416261D01*
X24981307Y46346619D01*
X24981305Y46346618D01*
X24981306Y46346618D01*
X24895715Y46276376D01*
X24895708Y46276369D01*
X24867105Y46252895D01*
X24843630Y46224291D01*
X22355717Y43736376D01*
X22327106Y43712895D01*
X22303627Y43684286D01*
X22303624Y43684283D01*
X22276131Y43650782D01*
X22233382Y43598693D01*
X22204475Y43544611D01*
X22163739Y43468400D01*
X22120853Y43327025D01*
X22106373Y43180000D01*
X22110001Y43143163D01*
X22110000Y35746658D01*
X21495964Y35132621D01*
X21521963Y35195389D01*
X21570000Y35436886D01*
X21570000Y35683114D01*
X21521963Y35924611D01*
X21427735Y36152097D01*
X21290938Y36356828D01*
X21116828Y36530938D01*
X20912097Y36667735D01*
X20684611Y36761963D01*
X20443114Y36810000D01*
X20196886Y36810000D01*
X19955389Y36761963D01*
X19727903Y36667735D01*
X19523172Y36530938D01*
X19349062Y36356828D01*
X19317773Y36310000D01*
X15497491Y36310000D01*
X15460663Y36313627D01*
X15423836Y36310000D01*
X15423829Y36310000D01*
X15313638Y36299147D01*
X15172263Y36256261D01*
X15041971Y36186619D01*
X14956299Y36116309D01*
X16189990Y37350000D01*
X19317773Y37350000D01*
X19349062Y37303172D01*
X19523172Y37129062D01*
X19727903Y36992265D01*
X19955389Y36898037D01*
X20196886Y36850000D01*
X20443114Y36850000D01*
X20684611Y36898037D01*
X20912097Y36992265D01*
X21116828Y37129062D01*
X21290938Y37303172D01*
X21427735Y37507903D01*
X21521963Y37735389D01*
X21570000Y37976886D01*
X21570000Y38223114D01*
X21521963Y38464611D01*
X21427735Y38692097D01*
X21290938Y38896828D01*
X21116828Y39070938D01*
X20912097Y39207735D01*
X20684611Y39301963D01*
X20617520Y39315308D01*
X20710780Y39365157D01*
X20817369Y39452632D01*
X20867594Y39513831D01*
X20912097Y39532265D01*
X21116828Y39669062D01*
X21290938Y39843172D01*
X21427735Y40047903D01*
X21521963Y40275389D01*
X21570000Y40516886D01*
X21570000Y40763114D01*
X21521963Y41004611D01*
X21427735Y41232097D01*
X21290938Y41436828D01*
X21116828Y41610938D01*
X20912097Y41747735D01*
X20684611Y41841963D01*
X20443114Y41890000D01*
X20196886Y41890000D01*
X19955389Y41841963D01*
X19727903Y41747735D01*
X19523172Y41610938D01*
X19349062Y41436828D01*
X19317773Y41390000D01*
X16334820Y41390000D01*
X16297995Y41393627D01*
X16261170Y41390000D01*
X16261161Y41390000D01*
X16150970Y41379147D01*
X16009595Y41336261D01*
X15879303Y41266619D01*
X15879301Y41266618D01*
X15879302Y41266618D01*
X15793711Y41196376D01*
X15793704Y41196369D01*
X15765101Y41172895D01*
X15741626Y41144291D01*
X5845687Y31248350D01*
X5817078Y31224871D01*
X5793599Y31196262D01*
X5793596Y31196259D01*
X5783267Y31183673D01*
X5723354Y31110669D01*
X5690696Y31049570D01*
X5653711Y30980376D01*
X5610825Y30839001D01*
X5596345Y30691976D01*
X5599973Y30655139D01*
X5599971Y11687520D01*
X5596344Y11650693D01*
X500000Y11650693D01*
X500000Y39000000D01*
X3727823Y39000000D01*
X3727823Y37200000D01*
X3736511Y37111785D01*
X3762243Y37026959D01*
X3804029Y36948784D01*
X3860263Y36880263D01*
X3928784Y36824029D01*
X4006959Y36782243D01*
X4091785Y36756511D01*
X4180000Y36747823D01*
X5980000Y36747823D01*
X6068215Y36756511D01*
X6153041Y36782243D01*
X6231216Y36824029D01*
X6299737Y36880263D01*
X6355971Y36948784D01*
X6397757Y37026959D01*
X6423489Y37111785D01*
X6432177Y37200000D01*
X6432177Y37447767D01*
X6571387Y37239425D01*
X6759425Y37051387D01*
X6980535Y36903646D01*
X7226220Y36801880D01*
X7487037Y36750000D01*
X7752963Y36750000D01*
X8013780Y36801880D01*
X8259465Y36903646D01*
X8480575Y37051387D01*
X8668613Y37239425D01*
X8816354Y37460535D01*
X8918120Y37706220D01*
X8970000Y37967037D01*
X8970000Y38232963D01*
X8944055Y38363396D01*
X13010660Y42430000D01*
X19317773Y42430000D01*
X19349062Y42383172D01*
X19523172Y42209062D01*
X19727903Y42072265D01*
X19955389Y41978037D01*
X20196886Y41930000D01*
X20443114Y41930000D01*
X20684611Y41978037D01*
X20912097Y42072265D01*
X21116828Y42209062D01*
X21290938Y42383172D01*
X21427735Y42587903D01*
X21521963Y42815389D01*
X21570000Y43056886D01*
X21570000Y43303114D01*
X21521963Y43544611D01*
X21427735Y43772097D01*
X21290938Y43976828D01*
X21116828Y44150938D01*
X20912097Y44287735D01*
X20684611Y44381963D01*
X20443114Y44430000D01*
X20196886Y44430000D01*
X19955389Y44381963D01*
X19727903Y44287735D01*
X19523172Y44150938D01*
X19349062Y43976828D01*
X19317773Y43930000D01*
X12736827Y43930000D01*
X12700000Y43933627D01*
X12663172Y43930000D01*
X12663165Y43930000D01*
X12552974Y43919147D01*
X12411599Y43876261D01*
X12281307Y43806619D01*
X12167105Y43712895D01*
X12143626Y43684286D01*
X7883396Y39424055D01*
X7752963Y39450000D01*
X7487037Y39450000D01*
X7226220Y39398120D01*
X6980535Y39296354D01*
X6759425Y39148613D01*
X6571387Y38960575D01*
X6432177Y38752233D01*
X6432177Y39000000D01*
X6423489Y39088215D01*
X6397757Y39173041D01*
X6355971Y39251216D01*
X6299737Y39319737D01*
X6231216Y39375971D01*
X6153041Y39417757D01*
X6068215Y39443489D01*
X5980000Y39452177D01*
X5830000Y39452177D01*
X5830000Y41599341D01*
X9200660Y44970000D01*
X11697773Y44970000D01*
X11729062Y44923172D01*
X11903172Y44749062D01*
X12107903Y44612265D01*
X12335389Y44518037D01*
X12576886Y44470000D01*
X12823114Y44470000D01*
X13064611Y44518037D01*
X13292097Y44612265D01*
X13496828Y44749062D01*
X13670938Y44923172D01*
X13807735Y45127903D01*
X13901963Y45355389D01*
X13950000Y45596886D01*
X13950000Y45843114D01*
X19070000Y45843114D01*
X19070000Y45596886D01*
X19118037Y45355389D01*
X19212265Y45127903D01*
X19349062Y44923172D01*
X19523172Y44749062D01*
X19727903Y44612265D01*
X19955389Y44518037D01*
X20196886Y44470000D01*
X20443114Y44470000D01*
X20684611Y44518037D01*
X20912097Y44612265D01*
X21116828Y44749062D01*
X21290938Y44923172D01*
X21427735Y45127903D01*
X21521963Y45355389D01*
X21570000Y45596886D01*
X21570000Y45843114D01*
X21521963Y46084611D01*
X21427735Y46312097D01*
X21290938Y46516828D01*
X21116828Y46690938D01*
X20912097Y46827735D01*
X20684611Y46921963D01*
X20443114Y46970000D01*
X20196886Y46970000D01*
X19955389Y46921963D01*
X19727903Y46827735D01*
X19523172Y46690938D01*
X19349062Y46516828D01*
X19212265Y46312097D01*
X19118037Y46084611D01*
X19070000Y45843114D01*
X13950000Y45843114D01*
X13901963Y46084611D01*
X13807735Y46312097D01*
X13670938Y46516828D01*
X13496828Y46690938D01*
X13292097Y46827735D01*
X13064611Y46921963D01*
X12823114Y46970000D01*
X12576886Y46970000D01*
X12335389Y46921963D01*
X12107903Y46827735D01*
X11903172Y46690938D01*
X11729062Y46516828D01*
X11697773Y46470000D01*
X8926828Y46470000D01*
X8890000Y46473627D01*
X8853172Y46470000D01*
X8853165Y46470000D01*
X8742974Y46459147D01*
X8601599Y46416261D01*
X8471307Y46346619D01*
X8357105Y46252895D01*
X8333626Y46224286D01*
X4575715Y42466374D01*
X4547106Y42442895D01*
X4523627Y42414286D01*
X4523624Y42414283D01*
X4498092Y42383172D01*
X4453382Y42328693D01*
X4431116Y42287036D01*
X4383739Y42198400D01*
X4340853Y42057025D01*
X4326373Y41910000D01*
X4330001Y41873163D01*
X4330000Y39452177D01*
X4180000Y39452177D01*
X4091785Y39443489D01*
X4006959Y39417757D01*
X3928784Y39375971D01*
X3860263Y39319737D01*
X3804029Y39251216D01*
X3762243Y39173041D01*
X3736511Y39088215D01*
X3727823Y39000000D01*
X500000Y39000000D01*
X500000Y48383114D01*
X19070000Y48383114D01*
X19070000Y48136886D01*
X19118037Y47895389D01*
X19212265Y47667903D01*
X19349062Y47463172D01*
X19523172Y47289062D01*
X19727903Y47152265D01*
X19955389Y47058037D01*
X20196886Y47010000D01*
X20443114Y47010000D01*
X20684611Y47058037D01*
X20912097Y47152265D01*
X21116828Y47289062D01*
X21290938Y47463172D01*
X21427735Y47667903D01*
X21521963Y47895389D01*
X21570000Y48136886D01*
X21570000Y48383114D01*
X21521963Y48624611D01*
X21427735Y48852097D01*
X21290938Y49056828D01*
X21116828Y49230938D01*
X20912097Y49367735D01*
X20684611Y49461963D01*
X20443114Y49510000D01*
X20196886Y49510000D01*
X19955389Y49461963D01*
X19727903Y49367735D01*
X19523172Y49230938D01*
X19349062Y49056828D01*
X19212265Y48852097D01*
X19118037Y48624611D01*
X19070000Y48383114D01*
X500000Y48383114D01*
X500000Y65620000D01*
X5047823Y65620000D01*
X5047823Y63920000D01*
X5056511Y63831785D01*
X5082243Y63746959D01*
X5124029Y63668784D01*
X5180263Y63600263D01*
X5248784Y63544029D01*
X5326959Y63502243D01*
X5411785Y63476511D01*
X5500000Y63467823D01*
X5600000Y63467823D01*
X5600001Y56942363D01*
X5521298Y56889776D01*
X5340224Y56708702D01*
X5197955Y56495781D01*
X5099958Y56259196D01*
X5050000Y56008039D01*
X5050000Y55751961D01*
X5099958Y55500804D01*
X5197955Y55264219D01*
X5340224Y55051298D01*
X5521298Y54870224D01*
X5734219Y54727955D01*
X5970804Y54629958D01*
X6221961Y54580000D01*
X6478039Y54580000D01*
X6729196Y54629958D01*
X6965781Y54727955D01*
X7178702Y54870224D01*
X7359776Y55051298D01*
X7502045Y55264219D01*
X7600042Y55500804D01*
X7650000Y55751961D01*
X7650000Y56008039D01*
X7600042Y56259196D01*
X7502045Y56495781D01*
X7359776Y56708702D01*
X7178702Y56889776D01*
X7100000Y56942363D01*
X7100000Y63467823D01*
X7200000Y63467823D01*
X7288215Y63476511D01*
X7373041Y63502243D01*
X7451216Y63544029D01*
X7519737Y63600263D01*
X7575971Y63668784D01*
X7617757Y63746959D01*
X7643489Y63831785D01*
X7652177Y63920000D01*
X7652177Y65620000D01*
X7643489Y65708215D01*
X7617757Y65793041D01*
X7575971Y65871216D01*
X7519737Y65939737D01*
X7451216Y65995971D01*
X7373041Y66037757D01*
X7288215Y66063489D01*
X7200000Y66072177D01*
X6758695Y66072177D01*
X6965781Y66157955D01*
X7178702Y66300224D01*
X7359776Y66481298D01*
X7412363Y66560000D01*
X8579341Y66560000D01*
X9410000Y65729340D01*
X9410001Y59726837D01*
X9406373Y59690000D01*
X9420853Y59542975D01*
X9463739Y59401600D01*
X9463740Y59401599D01*
X9533382Y59271307D01*
X9576131Y59219218D01*
X9603624Y59185717D01*
X9603627Y59185714D01*
X9627106Y59157105D01*
X9655715Y59133626D01*
X12143630Y56645709D01*
X12167105Y56617105D01*
X12195708Y56593631D01*
X12195715Y56593624D01*
X12269925Y56532722D01*
X12281307Y56523381D01*
X12411599Y56453739D01*
X12552974Y56410853D01*
X12663165Y56400000D01*
X12663174Y56400000D01*
X12699999Y56396373D01*
X12736824Y56400000D01*
X16519339Y56400000D01*
X19146357Y53772981D01*
X19118037Y53704611D01*
X19070000Y53463114D01*
X19070000Y53216886D01*
X19118037Y52975389D01*
X19212265Y52747903D01*
X19349062Y52543172D01*
X19523172Y52369062D01*
X19727903Y52232265D01*
X19955389Y52138037D01*
X20196886Y52090000D01*
X20443114Y52090000D01*
X20684611Y52138037D01*
X20912097Y52232265D01*
X21116828Y52369062D01*
X21290938Y52543172D01*
X21322227Y52590000D01*
X25089341Y52590000D01*
X26700988Y50978352D01*
X26690000Y50923114D01*
X26690000Y50676886D01*
X26738037Y50435389D01*
X26832265Y50207903D01*
X26969062Y50003172D01*
X27143172Y49829062D01*
X27190000Y49797772D01*
X27190001Y49262228D01*
X27143172Y49230938D01*
X26969062Y49056828D01*
X26832265Y48852097D01*
X26738037Y48624611D01*
X26690000Y48383114D01*
X26690000Y48136886D01*
X26738037Y47895389D01*
X26832265Y47667903D01*
X26969062Y47463172D01*
X27143172Y47289062D01*
X27347903Y47152265D01*
X27575389Y47058037D01*
X27816886Y47010000D01*
X28063114Y47010000D01*
X28304611Y47058037D01*
X28532097Y47152265D01*
X28736828Y47289062D01*
X28910938Y47463172D01*
X29047735Y47667903D01*
X29141963Y47895389D01*
X29190000Y48136886D01*
X29190000Y48383114D01*
X29141963Y48624611D01*
X29047735Y48852097D01*
X28910938Y49056828D01*
X28736828Y49230938D01*
X28690000Y49262227D01*
X28690000Y49797773D01*
X28736828Y49829062D01*
X28910938Y50003172D01*
X28925049Y50024291D01*
X29975716Y48973624D01*
X29975722Y48973619D01*
X33050988Y45898353D01*
X33040000Y45843114D01*
X33040000Y45596886D01*
X33088037Y45355389D01*
X33182265Y45127903D01*
X33319062Y44923172D01*
X33493172Y44749062D01*
X33540001Y44717772D01*
X33540000Y41842177D01*
X33451785Y41833489D01*
X33366959Y41807757D01*
X33288784Y41765971D01*
X33220263Y41709737D01*
X33164029Y41641216D01*
X33122243Y41563041D01*
X33096511Y41478215D01*
X33087823Y41390000D01*
X33087823Y39890000D01*
X33096511Y39801785D01*
X33122243Y39716959D01*
X33164029Y39638784D01*
X33220263Y39570263D01*
X33288784Y39514029D01*
X33366959Y39472243D01*
X33451785Y39446511D01*
X33540000Y39437823D01*
X35040000Y39437823D01*
X35128215Y39446511D01*
X35213041Y39472243D01*
X35291216Y39514029D01*
X35359737Y39570263D01*
X35415971Y39638784D01*
X35457757Y39716959D01*
X35483489Y39801785D01*
X35492177Y39890000D01*
X35492177Y41390000D01*
X35483489Y41478215D01*
X35457757Y41563041D01*
X35415971Y41641216D01*
X35359737Y41709737D01*
X35291216Y41765971D01*
X35213041Y41807757D01*
X35128215Y41833489D01*
X35040000Y41842177D01*
X35040000Y44717773D01*
X35086828Y44749062D01*
X35260938Y44923172D01*
X35397735Y45127903D01*
X35491963Y45355389D01*
X35540000Y45596886D01*
X35540000Y45843114D01*
X35491963Y46084611D01*
X35397735Y46312097D01*
X35260938Y46516828D01*
X35086828Y46690938D01*
X34882097Y46827735D01*
X34654611Y46921963D01*
X34413114Y46970000D01*
X34166886Y46970000D01*
X34111647Y46959012D01*
X31036381Y50034278D01*
X31036376Y50034284D01*
X29766378Y51304281D01*
X29742895Y51332895D01*
X29628693Y51426619D01*
X29498401Y51496261D01*
X29357026Y51539147D01*
X29246835Y51550000D01*
X29246827Y51550000D01*
X29210000Y51553627D01*
X29173173Y51550000D01*
X28942227Y51550000D01*
X28910938Y51596828D01*
X28736828Y51770938D01*
X28532097Y51907735D01*
X28304611Y52001963D01*
X28063114Y52050000D01*
X27816886Y52050000D01*
X27761648Y52039012D01*
X26150000Y53650659D01*
X26150000Y56003114D01*
X26690000Y56003114D01*
X26690000Y55756886D01*
X26738037Y55515389D01*
X26832265Y55287903D01*
X26969062Y55083172D01*
X27143172Y54909062D01*
X27347903Y54772265D01*
X27575389Y54678037D01*
X27816886Y54630000D01*
X28063114Y54630000D01*
X28304611Y54678037D01*
X28532097Y54772265D01*
X28736828Y54909062D01*
X28910938Y55083172D01*
X28942227Y55130000D01*
X32709341Y55130000D01*
X36080001Y51759339D01*
X36080000Y41582094D01*
X36065045Y41572101D01*
X35897899Y41404955D01*
X35766574Y41208413D01*
X35676116Y40990027D01*
X35630000Y40758190D01*
X35630000Y40521810D01*
X35676116Y40289973D01*
X35766574Y40071587D01*
X35897899Y39875045D01*
X36065045Y39707899D01*
X36080000Y39697906D01*
X36080001Y38136837D01*
X36076373Y38100000D01*
X36090853Y37952975D01*
X36133739Y37811600D01*
X36133740Y37811599D01*
X36203382Y37681307D01*
X36246131Y37629218D01*
X36273624Y37595717D01*
X36273625Y37595716D01*
X36297106Y37567105D01*
X36325715Y37543626D01*
X40670988Y33198352D01*
X40660000Y33143114D01*
X40660000Y32896886D01*
X40708037Y32655389D01*
X40802265Y32427903D01*
X40939062Y32223172D01*
X41113172Y32049062D01*
X41317903Y31912265D01*
X41545389Y31818037D01*
X41786886Y31770000D01*
X42033114Y31770000D01*
X42274611Y31818037D01*
X42502097Y31912265D01*
X42706828Y32049062D01*
X42880938Y32223172D01*
X43017735Y32427903D01*
X43111963Y32655389D01*
X43160000Y32896886D01*
X43160000Y33143114D01*
X43111963Y33384611D01*
X43017735Y33612097D01*
X42880938Y33816828D01*
X42706828Y33990938D01*
X42502097Y34127735D01*
X42274611Y34221963D01*
X42033114Y34270000D01*
X41786886Y34270000D01*
X41731648Y34259012D01*
X37580000Y38410659D01*
X37580000Y39697906D01*
X37594955Y39707899D01*
X37762101Y39875045D01*
X37893426Y40071587D01*
X37983884Y40289973D01*
X38030000Y40521810D01*
X38030000Y40758190D01*
X38170000Y40758190D01*
X38170000Y40521810D01*
X38216116Y40289973D01*
X38306574Y40071587D01*
X38437899Y39875045D01*
X38605045Y39707899D01*
X38801587Y39576574D01*
X39019973Y39486116D01*
X39251810Y39440000D01*
X39488190Y39440000D01*
X39720027Y39486116D01*
X39938413Y39576574D01*
X40134955Y39707899D01*
X40302101Y39875045D01*
X40433426Y40071587D01*
X40523884Y40289973D01*
X40570000Y40521810D01*
X40570000Y40758190D01*
X40523884Y40990027D01*
X40433426Y41208413D01*
X40302101Y41404955D01*
X40134955Y41572101D01*
X39938413Y41703426D01*
X39720027Y41793884D01*
X39488190Y41840000D01*
X39251810Y41840000D01*
X39019973Y41793884D01*
X38801587Y41703426D01*
X38605045Y41572101D01*
X38437899Y41404955D01*
X38306574Y41208413D01*
X38216116Y40990027D01*
X38170000Y40758190D01*
X38030000Y40758190D01*
X37983884Y40990027D01*
X37893426Y41208413D01*
X37762101Y41404955D01*
X37594955Y41572101D01*
X37580000Y41582094D01*
X37580000Y52033172D01*
X37583627Y52070000D01*
X37580000Y52106828D01*
X37580000Y52106835D01*
X37569147Y52217026D01*
X37526261Y52358401D01*
X37456619Y52488693D01*
X37362895Y52602895D01*
X37334286Y52626374D01*
X33576379Y56384280D01*
X33552895Y56412895D01*
X33438693Y56506619D01*
X33308401Y56576261D01*
X33167026Y56619147D01*
X33056835Y56630000D01*
X33056827Y56630000D01*
X33020000Y56633627D01*
X32983173Y56630000D01*
X28942227Y56630000D01*
X28910938Y56676828D01*
X28736828Y56850938D01*
X28532097Y56987735D01*
X28304611Y57081963D01*
X28063114Y57130000D01*
X27816886Y57130000D01*
X27575389Y57081963D01*
X27347903Y56987735D01*
X27143172Y56850938D01*
X26969062Y56676828D01*
X26832265Y56472097D01*
X26738037Y56244611D01*
X26690000Y56003114D01*
X26150000Y56003114D01*
X26150000Y58543114D01*
X26690000Y58543114D01*
X26690000Y58296886D01*
X26738037Y58055389D01*
X26832265Y57827903D01*
X26969062Y57623172D01*
X27143172Y57449062D01*
X27347903Y57312265D01*
X27575389Y57218037D01*
X27816886Y57170000D01*
X28063114Y57170000D01*
X28304611Y57218037D01*
X28532097Y57312265D01*
X28736828Y57449062D01*
X28910938Y57623172D01*
X29047735Y57827903D01*
X29141963Y58055389D01*
X29190000Y58296886D01*
X29190000Y58543114D01*
X29141963Y58784611D01*
X29047735Y59012097D01*
X28910938Y59216828D01*
X28736828Y59390938D01*
X28532097Y59527735D01*
X28304611Y59621963D01*
X28063114Y59670000D01*
X27816886Y59670000D01*
X27575389Y59621963D01*
X27347903Y59527735D01*
X27143172Y59390938D01*
X26969062Y59216828D01*
X26832265Y59012097D01*
X26738037Y58784611D01*
X26690000Y58543114D01*
X26150000Y58543114D01*
X26150000Y61083114D01*
X26690000Y61083114D01*
X26690000Y60836886D01*
X26738037Y60595389D01*
X26832265Y60367903D01*
X26969062Y60163172D01*
X27143172Y59989062D01*
X27347903Y59852265D01*
X27575389Y59758037D01*
X27816886Y59710000D01*
X28063114Y59710000D01*
X28304611Y59758037D01*
X28532097Y59852265D01*
X28736828Y59989062D01*
X28910938Y60163172D01*
X29047735Y60367903D01*
X29141963Y60595389D01*
X29190000Y60836886D01*
X29190000Y61083114D01*
X29141963Y61324611D01*
X29047735Y61552097D01*
X28910938Y61756828D01*
X28736828Y61930938D01*
X28532097Y62067735D01*
X28304611Y62161963D01*
X28063114Y62210000D01*
X27816886Y62210000D01*
X27575389Y62161963D01*
X27347903Y62067735D01*
X27143172Y61930938D01*
X26969062Y61756828D01*
X26832265Y61552097D01*
X26738037Y61324611D01*
X26690000Y61083114D01*
X26150000Y61083114D01*
X26150000Y63623114D01*
X26690000Y63623114D01*
X26690000Y63376886D01*
X26738037Y63135389D01*
X26832265Y62907903D01*
X26969062Y62703172D01*
X27143172Y62529062D01*
X27347903Y62392265D01*
X27575389Y62298037D01*
X27816886Y62250000D01*
X28063114Y62250000D01*
X28304611Y62298037D01*
X28532097Y62392265D01*
X28736828Y62529062D01*
X28910938Y62703172D01*
X29047735Y62907903D01*
X29141963Y63135389D01*
X29190000Y63376886D01*
X29190000Y63623114D01*
X29141963Y63864611D01*
X29047735Y64092097D01*
X28910938Y64296828D01*
X28736828Y64470938D01*
X28532097Y64607735D01*
X28304611Y64701963D01*
X28063114Y64750000D01*
X27816886Y64750000D01*
X27575389Y64701963D01*
X27347903Y64607735D01*
X27143172Y64470938D01*
X26969062Y64296828D01*
X26832265Y64092097D01*
X26738037Y63864611D01*
X26690000Y63623114D01*
X26150000Y63623114D01*
X26150000Y66163114D01*
X26690000Y66163114D01*
X26690000Y65916886D01*
X26738037Y65675389D01*
X26832265Y65447903D01*
X26969062Y65243172D01*
X27143172Y65069062D01*
X27347903Y64932265D01*
X27575389Y64838037D01*
X27816886Y64790000D01*
X28063114Y64790000D01*
X28304611Y64838037D01*
X28532097Y64932265D01*
X28736828Y65069062D01*
X28910938Y65243172D01*
X29047735Y65447903D01*
X29141963Y65675389D01*
X29190000Y65916886D01*
X29190000Y66163114D01*
X29141963Y66404611D01*
X29047735Y66632097D01*
X28910938Y66836828D01*
X28736828Y67010938D01*
X28532097Y67147735D01*
X28304611Y67241963D01*
X28063114Y67290000D01*
X27816886Y67290000D01*
X27575389Y67241963D01*
X27347903Y67147735D01*
X27143172Y67010938D01*
X26969062Y66836828D01*
X26832265Y66632097D01*
X26738037Y66404611D01*
X26690000Y66163114D01*
X26150000Y66163114D01*
X26150000Y68269341D01*
X26716377Y68835717D01*
X26690000Y68703114D01*
X26690000Y68456886D01*
X26738037Y68215389D01*
X26832265Y67987903D01*
X26969062Y67783172D01*
X27143172Y67609062D01*
X27347903Y67472265D01*
X27575389Y67378037D01*
X27816886Y67330000D01*
X28063114Y67330000D01*
X28304611Y67378037D01*
X28532097Y67472265D01*
X28736828Y67609062D01*
X28910938Y67783172D01*
X29047735Y67987903D01*
X29141963Y68215389D01*
X29190000Y68456886D01*
X29190000Y68703114D01*
X29141963Y68944611D01*
X29047735Y69172097D01*
X28910938Y69376828D01*
X28736828Y69550938D01*
X28532097Y69687735D01*
X28304611Y69781963D01*
X28063114Y69830000D01*
X27816886Y69830000D01*
X27684283Y69803623D01*
X29520660Y71640000D01*
X31439341Y71640000D01*
X37639340Y65440000D01*
X35041905Y65440000D01*
X35041905Y61340000D01*
X38618095Y61340000D01*
X38618095Y64461245D01*
X39358466Y63720874D01*
X39340000Y63628039D01*
X39340000Y63371961D01*
X39389958Y63120804D01*
X39487955Y62884219D01*
X39630224Y62671298D01*
X39811298Y62490224D01*
X40024219Y62347955D01*
X40260804Y62249958D01*
X40511961Y62200000D01*
X40768039Y62200000D01*
X41019196Y62249958D01*
X41255781Y62347955D01*
X41468702Y62490224D01*
X41649776Y62671298D01*
X41792045Y62884219D01*
X41890042Y63120804D01*
X41940000Y63371961D01*
X41940000Y63628039D01*
X41890042Y63879196D01*
X41792045Y64115781D01*
X41649776Y64328702D01*
X41468702Y64509776D01*
X41255781Y64652045D01*
X41019196Y64750042D01*
X40918860Y64770000D01*
X41019196Y64789958D01*
X41255781Y64887955D01*
X41468702Y65030224D01*
X41649776Y65211298D01*
X41792045Y65424219D01*
X41890042Y65660804D01*
X41940000Y65911961D01*
X41940000Y66168039D01*
X41890042Y66419196D01*
X41792045Y66655781D01*
X41649776Y66868702D01*
X41468702Y67049776D01*
X41255781Y67192045D01*
X41019196Y67290042D01*
X40768039Y67340000D01*
X40511961Y67340000D01*
X40260804Y67290042D01*
X40024219Y67192045D01*
X39811298Y67049776D01*
X39630224Y66868702D01*
X39618903Y66851758D01*
X37580000Y68890659D01*
X37580000Y75137637D01*
X37658702Y75190224D01*
X37839776Y75371298D01*
X37982045Y75584219D01*
X38080042Y75820804D01*
X38130000Y76071961D01*
X38130000Y76328039D01*
X38080042Y76579196D01*
X37982045Y76815781D01*
X37839776Y77028702D01*
X37658702Y77209776D01*
X37445781Y77352045D01*
X37209196Y77450042D01*
X36958039Y77500000D01*
X36701961Y77500000D01*
X36450804Y77450042D01*
X36214219Y77352045D01*
X36001298Y77209776D01*
X35820224Y77028702D01*
X35677955Y76815781D01*
X35592177Y76608695D01*
X35592177Y77050000D01*
X35583489Y77138215D01*
X35557757Y77223041D01*
X35515971Y77301216D01*
X35459737Y77369737D01*
X35391216Y77425971D01*
X35313041Y77467757D01*
X35228215Y77493489D01*
X35140000Y77502177D01*
X33440000Y77502177D01*
X33351785Y77493489D01*
X33266959Y77467757D01*
X33188784Y77425971D01*
X33120263Y77369737D01*
X33064029Y77301216D01*
X33022243Y77223041D01*
X32996511Y77138215D01*
X32987823Y77050000D01*
X32987823Y76950000D01*
X29246827Y76950000D01*
X29210000Y76953627D01*
X29173172Y76950000D01*
X29173165Y76950000D01*
X29062974Y76939147D01*
X28921599Y76896261D01*
X28791307Y76826619D01*
X28677105Y76732895D01*
X28653626Y76704286D01*
X23625720Y71676379D01*
X23597105Y71652895D01*
X23503381Y71538692D01*
X23433739Y71408400D01*
X23390853Y71267025D01*
X23380000Y71156834D01*
X23380000Y71156827D01*
X23376373Y71120000D01*
X23380000Y71083173D01*
X23380001Y65080661D01*
X21543623Y63244283D01*
X21570000Y63376886D01*
X21570000Y63623114D01*
X21521963Y63864611D01*
X21427735Y64092097D01*
X21290938Y64296828D01*
X21116828Y64470938D01*
X20912097Y64607735D01*
X20684611Y64701963D01*
X20443114Y64750000D01*
X20196886Y64750000D01*
X19955389Y64701963D01*
X19727903Y64607735D01*
X19523172Y64470938D01*
X19349062Y64296828D01*
X19317773Y64250000D01*
X15032363Y64250000D01*
X14979776Y64328702D01*
X14798702Y64509776D01*
X14585781Y64652045D01*
X14349196Y64750042D01*
X14248860Y64770000D01*
X14349196Y64789958D01*
X14585781Y64887955D01*
X14798702Y65030224D01*
X14979776Y65211298D01*
X15032363Y65290000D01*
X19317773Y65290000D01*
X19349062Y65243172D01*
X19523172Y65069062D01*
X19727903Y64932265D01*
X19955389Y64838037D01*
X20196886Y64790000D01*
X20443114Y64790000D01*
X20684611Y64838037D01*
X20912097Y64932265D01*
X21116828Y65069062D01*
X21290938Y65243172D01*
X21427735Y65447903D01*
X21521963Y65675389D01*
X21570000Y65916886D01*
X21570000Y66163114D01*
X21521963Y66404611D01*
X21427735Y66632097D01*
X21290938Y66836828D01*
X21116828Y67010938D01*
X20912097Y67147735D01*
X20684611Y67241963D01*
X20443114Y67290000D01*
X20196886Y67290000D01*
X19955389Y67241963D01*
X19727903Y67147735D01*
X19523172Y67010938D01*
X19349062Y66836828D01*
X19317773Y66790000D01*
X15032363Y66790000D01*
X14979776Y66868702D01*
X14798702Y67049776D01*
X14585781Y67192045D01*
X14349196Y67290042D01*
X14098039Y67340000D01*
X13841961Y67340000D01*
X13590804Y67290042D01*
X13354219Y67192045D01*
X13141298Y67049776D01*
X12960224Y66868702D01*
X12817955Y66655781D01*
X12719958Y66419196D01*
X12670000Y66168039D01*
X12670000Y65911961D01*
X12719958Y65660804D01*
X12817955Y65424219D01*
X12960224Y65211298D01*
X13141298Y65030224D01*
X13354219Y64887955D01*
X13590804Y64789958D01*
X13691140Y64770000D01*
X13590804Y64750042D01*
X13354219Y64652045D01*
X13141298Y64509776D01*
X12960224Y64328702D01*
X12817955Y64115781D01*
X12719958Y63879196D01*
X12670000Y63628039D01*
X12670000Y63371961D01*
X12719958Y63120804D01*
X12817955Y62884219D01*
X12960224Y62671298D01*
X13141298Y62490224D01*
X13354219Y62347955D01*
X13590804Y62249958D01*
X13841961Y62200000D01*
X14098039Y62200000D01*
X14349196Y62249958D01*
X14585781Y62347955D01*
X14798702Y62490224D01*
X14979776Y62671298D01*
X15032363Y62750000D01*
X19317773Y62750000D01*
X19349062Y62703172D01*
X19523172Y62529062D01*
X19727903Y62392265D01*
X19955389Y62298037D01*
X20196886Y62250000D01*
X20443114Y62250000D01*
X20575717Y62276377D01*
X20498353Y62199012D01*
X20443114Y62210000D01*
X20196886Y62210000D01*
X19955389Y62161963D01*
X19727903Y62067735D01*
X19523172Y61930938D01*
X19349062Y61756828D01*
X19212265Y61552097D01*
X19118037Y61324611D01*
X19070000Y61083114D01*
X19070000Y60836886D01*
X19118037Y60595389D01*
X19212265Y60367903D01*
X19349062Y60163172D01*
X19523172Y59989062D01*
X19727903Y59852265D01*
X19955389Y59758037D01*
X20196886Y59710000D01*
X20443114Y59710000D01*
X20684611Y59758037D01*
X20912097Y59852265D01*
X21116828Y59989062D01*
X21290938Y60163172D01*
X21427735Y60367903D01*
X21521963Y60595389D01*
X21570000Y60836886D01*
X21570000Y61083114D01*
X21559012Y61138353D01*
X24634286Y64213626D01*
X24650000Y64226522D01*
X24650001Y54090000D01*
X21322227Y54090000D01*
X21290938Y54136828D01*
X21116828Y54310938D01*
X20912097Y54447735D01*
X20687429Y54540796D01*
X20685307Y54541930D01*
X20506231Y54596252D01*
X20437651Y54603006D01*
X20410658Y54630000D01*
X20443114Y54630000D01*
X20684611Y54678037D01*
X20912097Y54772265D01*
X21116828Y54909062D01*
X21290938Y55083172D01*
X21427735Y55287903D01*
X21521963Y55515389D01*
X21570000Y55756886D01*
X21570000Y56003114D01*
X21521963Y56244611D01*
X21427735Y56472097D01*
X21290938Y56676828D01*
X21116828Y56850938D01*
X20912097Y56987735D01*
X20684611Y57081963D01*
X20443114Y57130000D01*
X20196886Y57130000D01*
X19955389Y57081963D01*
X19727903Y56987735D01*
X19523172Y56850938D01*
X19349062Y56676828D01*
X19212265Y56472097D01*
X19118037Y56244611D01*
X19070000Y56003114D01*
X19070000Y55970657D01*
X17386377Y57654280D01*
X17362893Y57682895D01*
X17248691Y57776619D01*
X17118399Y57846261D01*
X16977024Y57889147D01*
X16866833Y57900000D01*
X16866825Y57900000D01*
X16829998Y57903627D01*
X16793171Y57900000D01*
X13010661Y57900000D01*
X12367547Y58543114D01*
X19070000Y58543114D01*
X19070000Y58296886D01*
X19118037Y58055389D01*
X19212265Y57827903D01*
X19349062Y57623172D01*
X19523172Y57449062D01*
X19727903Y57312265D01*
X19955389Y57218037D01*
X20196886Y57170000D01*
X20443114Y57170000D01*
X20684611Y57218037D01*
X20912097Y57312265D01*
X21116828Y57449062D01*
X21290938Y57623172D01*
X21427735Y57827903D01*
X21521963Y58055389D01*
X21570000Y58296886D01*
X21570000Y58543114D01*
X21521963Y58784611D01*
X21427735Y59012097D01*
X21290938Y59216828D01*
X21116828Y59390938D01*
X20912097Y59527735D01*
X20684611Y59621963D01*
X20443114Y59670000D01*
X20196886Y59670000D01*
X19955389Y59621963D01*
X19727903Y59527735D01*
X19523172Y59390938D01*
X19349062Y59216828D01*
X19212265Y59012097D01*
X19118037Y58784611D01*
X19070000Y58543114D01*
X12367547Y58543114D01*
X10910000Y60000659D01*
X10910000Y66003173D01*
X10913627Y66040001D01*
X10910000Y66076829D01*
X10910000Y66076835D01*
X10899147Y66187026D01*
X10864809Y66300224D01*
X10856261Y66328401D01*
X10807730Y66419196D01*
X10786619Y66458693D01*
X10692895Y66572895D01*
X10664287Y66596373D01*
X9950659Y67310000D01*
X12714565Y70073906D01*
X12744029Y70018784D01*
X12800263Y69950263D01*
X12868784Y69894029D01*
X12946959Y69852243D01*
X13031785Y69826511D01*
X13120000Y69817823D01*
X14820000Y69817823D01*
X14908215Y69826511D01*
X14993041Y69852243D01*
X15071216Y69894029D01*
X15139737Y69950263D01*
X15195971Y70018784D01*
X15237757Y70096959D01*
X15263489Y70181785D01*
X15272177Y70270000D01*
X15272177Y71970000D01*
X15263489Y72058215D01*
X15237757Y72143041D01*
X15195971Y72221216D01*
X15139737Y72289737D01*
X15071216Y72345971D01*
X14993041Y72387757D01*
X14908215Y72413489D01*
X14820000Y72422177D01*
X14720000Y72422177D01*
X14720000Y76467773D01*
X14766828Y76499062D01*
X14940938Y76673172D01*
X15077735Y76877903D01*
X15171963Y77105389D01*
X15220000Y77346886D01*
X15220000Y77593114D01*
X15171963Y77834611D01*
X15077735Y78062097D01*
X14940938Y78266828D01*
X14766828Y78440938D01*
X14562097Y78577735D01*
X14334611Y78671963D01*
X14093114Y78720000D01*
X13846886Y78720000D01*
X13605389Y78671963D01*
X13377903Y78577735D01*
X13173172Y78440938D01*
X12999062Y78266828D01*
X12862265Y78062097D01*
X12768037Y77834611D01*
X12720000Y77593114D01*
X12720000Y77346886D01*
X12768037Y77105389D01*
X12862265Y76877903D01*
X12999062Y76673172D01*
X13173172Y76499062D01*
X13220000Y76467772D01*
X13220001Y72422177D01*
X13120000Y72422177D01*
X13031785Y72413489D01*
X12946959Y72387757D01*
X12868784Y72345971D01*
X12800263Y72289737D01*
X12744029Y72221216D01*
X12702243Y72143041D01*
X12676511Y72058215D01*
X12667823Y71970000D01*
X12667823Y71870458D01*
X12663172Y71870000D01*
X12663165Y71870000D01*
X12552974Y71859147D01*
X12411599Y71816261D01*
X12281307Y71746619D01*
X12226095Y71701307D01*
X12167105Y71652895D01*
X12143626Y71624286D01*
X8579341Y68060000D01*
X7412363Y68060000D01*
X7359776Y68138702D01*
X7178702Y68319776D01*
X6965781Y68462045D01*
X6729196Y68560042D01*
X6628860Y68580000D01*
X6729196Y68599958D01*
X6965781Y68697955D01*
X7178702Y68840224D01*
X7359776Y69021298D01*
X7502045Y69234219D01*
X7600042Y69470804D01*
X7650000Y69721961D01*
X7650000Y69978039D01*
X7600042Y70229196D01*
X7502045Y70465781D01*
X7359776Y70678702D01*
X7178702Y70859776D01*
X6965781Y71002045D01*
X6729196Y71100042D01*
X6478039Y71150000D01*
X6221961Y71150000D01*
X5970804Y71100042D01*
X5734219Y71002045D01*
X5521298Y70859776D01*
X5340224Y70678702D01*
X5197955Y70465781D01*
X5099958Y70229196D01*
X5050000Y69978039D01*
X5050000Y69721961D01*
X5099958Y69470804D01*
X5197955Y69234219D01*
X5340224Y69021298D01*
X5521298Y68840224D01*
X5734219Y68697955D01*
X5970804Y68599958D01*
X6071140Y68580000D01*
X5970804Y68560042D01*
X5734219Y68462045D01*
X5521298Y68319776D01*
X5340224Y68138702D01*
X5197955Y67925781D01*
X5099958Y67689196D01*
X5050000Y67438039D01*
X5050000Y67181961D01*
X5099958Y66930804D01*
X5197955Y66694219D01*
X5340224Y66481298D01*
X5521298Y66300224D01*
X5734219Y66157955D01*
X5941305Y66072177D01*
X5500000Y66072177D01*
X5411785Y66063489D01*
X5326959Y66037757D01*
X5248784Y65995971D01*
X5180263Y65939737D01*
X5124029Y65871216D01*
X5082243Y65793041D01*
X5056511Y65708215D01*
X5047823Y65620000D01*
X500000Y65620000D01*
X500000Y86584562D01*
X1529981Y86584562D01*
X1529981Y86135438D01*
X1617601Y85694943D01*
X1789473Y85280006D01*
X2038994Y84906573D01*
X2356573Y84588994D01*
X2730006Y84339473D01*
X3144943Y84167601D01*
X3585438Y84079981D01*
X4034562Y84079981D01*
X4475057Y84167601D01*
X4889994Y84339473D01*
X5263427Y84588994D01*
X5581006Y84906573D01*
X5785831Y85213114D01*
X12720000Y85213114D01*
X12720000Y84966886D01*
X12768037Y84725389D01*
X12862265Y84497903D01*
X12999062Y84293172D01*
X13173172Y84119062D01*
X13377903Y83982265D01*
X13605389Y83888037D01*
X13846886Y83840000D01*
X14093114Y83840000D01*
X14334611Y83888037D01*
X14562097Y83982265D01*
X14766828Y84119062D01*
X14940938Y84293172D01*
X15072454Y84490000D01*
X20347234Y84490000D01*
X20463711Y84315679D01*
X20665679Y84113711D01*
X20840000Y83997234D01*
X20840001Y79982767D01*
X20665679Y79866289D01*
X20463711Y79664321D01*
X20305027Y79426833D01*
X20195723Y79162949D01*
X20140000Y78882813D01*
X20140000Y78597187D01*
X20195723Y78317051D01*
X20305027Y78053167D01*
X20463711Y77815679D01*
X20665679Y77613711D01*
X20903167Y77455027D01*
X21167051Y77345723D01*
X21447187Y77290000D01*
X21732813Y77290000D01*
X21840000Y77311321D01*
X21839999Y72430660D01*
X19815715Y70406374D01*
X19787106Y70382895D01*
X19763627Y70354286D01*
X19763624Y70354283D01*
X19736131Y70320782D01*
X19693382Y70268693D01*
X19672271Y70229196D01*
X19623739Y70138400D01*
X19580853Y69997025D01*
X19566373Y69850000D01*
X19568128Y69832177D01*
X19520000Y69832177D01*
X19431785Y69823489D01*
X19346959Y69797757D01*
X19268784Y69755971D01*
X19200263Y69699737D01*
X19144029Y69631216D01*
X19102243Y69553041D01*
X19076511Y69468215D01*
X19067823Y69380000D01*
X19067823Y67780000D01*
X19076511Y67691785D01*
X19102243Y67606959D01*
X19144029Y67528784D01*
X19200263Y67460263D01*
X19268784Y67404029D01*
X19346959Y67362243D01*
X19431785Y67336511D01*
X19520000Y67327823D01*
X21120000Y67327823D01*
X21208215Y67336511D01*
X21293041Y67362243D01*
X21371216Y67404029D01*
X21439737Y67460263D01*
X21495971Y67528784D01*
X21537757Y67606959D01*
X21563489Y67691785D01*
X21572177Y67780000D01*
X21572177Y69380000D01*
X21563489Y69468215D01*
X21537757Y69553041D01*
X21495971Y69631216D01*
X21439737Y69699737D01*
X21371216Y69755971D01*
X21316094Y69785435D01*
X23094291Y71563630D01*
X23122894Y71587104D01*
X23146368Y71615707D01*
X23146375Y71615714D01*
X23216617Y71701305D01*
X23216618Y71701306D01*
X23286260Y71831598D01*
X23329146Y71972973D01*
X23339999Y72083164D01*
X23339999Y72083173D01*
X23343626Y72119998D01*
X23339999Y72156823D01*
X23339999Y77703174D01*
X23343626Y77740002D01*
X23339999Y77776829D01*
X23339999Y77776836D01*
X23329146Y77887027D01*
X23286260Y78028402D01*
X23216618Y78158694D01*
X23163328Y78223628D01*
X23146375Y78244285D01*
X23146373Y78244287D01*
X23122894Y78272896D01*
X23094285Y78296375D01*
X22999098Y78391562D01*
X23040000Y78597187D01*
X23040000Y78882813D01*
X22984277Y79162949D01*
X22874973Y79426833D01*
X22716289Y79664321D01*
X22514321Y79866289D01*
X22340000Y79982766D01*
X22340000Y83997234D01*
X22514321Y84113711D01*
X22716289Y84315679D01*
X22874973Y84553167D01*
X22984277Y84817051D01*
X23040000Y85097187D01*
X23040000Y85382813D01*
X22984277Y85662949D01*
X22874973Y85926833D01*
X22716289Y86164321D01*
X22514321Y86366289D01*
X22276833Y86524973D01*
X22132972Y86584562D01*
X39629981Y86584562D01*
X39629981Y86135438D01*
X39717601Y85694943D01*
X39889473Y85280006D01*
X40138994Y84906573D01*
X40456573Y84588994D01*
X40830006Y84339473D01*
X41244943Y84167601D01*
X41685438Y84079981D01*
X42134562Y84079981D01*
X42575057Y84167601D01*
X42989994Y84339473D01*
X43363427Y84588994D01*
X43681006Y84906573D01*
X43930527Y85280006D01*
X44102399Y85694943D01*
X44190019Y86135438D01*
X44190019Y86584562D01*
X44102399Y87025057D01*
X43930527Y87439994D01*
X43681006Y87813427D01*
X43363427Y88131006D01*
X42989994Y88380527D01*
X42575057Y88552399D01*
X42134562Y88640019D01*
X41685438Y88640019D01*
X41244943Y88552399D01*
X40830006Y88380527D01*
X40456573Y88131006D01*
X40138994Y87813427D01*
X39889473Y87439994D01*
X39717601Y87025057D01*
X39629981Y86584562D01*
X22132972Y86584562D01*
X22012949Y86634277D01*
X21732813Y86690000D01*
X21447187Y86690000D01*
X21167051Y86634277D01*
X20903167Y86524973D01*
X20665679Y86366289D01*
X20463711Y86164321D01*
X20347234Y85990000D01*
X14837766Y85990000D01*
X14766828Y86060938D01*
X14562097Y86197735D01*
X14334611Y86291963D01*
X14093114Y86340000D01*
X13846886Y86340000D01*
X13605389Y86291963D01*
X13377903Y86197735D01*
X13173172Y86060938D01*
X12999062Y85886828D01*
X12862265Y85682097D01*
X12768037Y85454611D01*
X12720000Y85213114D01*
X5785831Y85213114D01*
X5830527Y85280006D01*
X6002399Y85694943D01*
X6090019Y86135438D01*
X6090019Y86584562D01*
X6002399Y87025057D01*
X5830527Y87439994D01*
X5581006Y87813427D01*
X5263427Y88131006D01*
X4889994Y88380527D01*
X4475057Y88552399D01*
X4034562Y88640019D01*
X3585438Y88640019D01*
X3144943Y88552399D01*
X2730006Y88380527D01*
X2356573Y88131006D01*
X2038994Y87813427D01*
X1789473Y87439994D01*
X1617601Y87025057D01*
X1529981Y86584562D01*
X500000Y86584562D01*
X500000Y89670000D01*
X45220000Y89670000D01*
X45220001Y500000D01*
G37*
X45220001Y500000D02*
X500000Y500000D01*
X500000Y4034562D01*
X1529981Y4034562D01*
X1529981Y3585438D01*
X1617601Y3144943D01*
X1789473Y2730006D01*
X2038994Y2356573D01*
X2356573Y2038994D01*
X2730006Y1789473D01*
X3144943Y1617601D01*
X3585438Y1529981D01*
X4034562Y1529981D01*
X4475057Y1617601D01*
X4889994Y1789473D01*
X5263427Y2038994D01*
X5581006Y2356573D01*
X5830527Y2730006D01*
X6002399Y3144943D01*
X6090019Y3585438D01*
X6090019Y4034562D01*
X39629981Y4034562D01*
X39629981Y3585438D01*
X39717601Y3144943D01*
X39889473Y2730006D01*
X40138994Y2356573D01*
X40456573Y2038994D01*
X40830006Y1789473D01*
X41244943Y1617601D01*
X41685438Y1529981D01*
X42134562Y1529981D01*
X42575057Y1617601D01*
X42989994Y1789473D01*
X43363427Y2038994D01*
X43681006Y2356573D01*
X43930527Y2730006D01*
X44102399Y3144943D01*
X44190019Y3585438D01*
X44190019Y4034562D01*
X44102399Y4475057D01*
X43930527Y4889994D01*
X43681006Y5263427D01*
X43363427Y5581006D01*
X42989994Y5830527D01*
X42575057Y6002399D01*
X42134562Y6090019D01*
X41685438Y6090019D01*
X41244943Y6002399D01*
X40830006Y5830527D01*
X40456573Y5581006D01*
X40138994Y5263427D01*
X39889473Y4889994D01*
X39717601Y4475057D01*
X39629981Y4034562D01*
X6090019Y4034562D01*
X6002399Y4475057D01*
X5830527Y4889994D01*
X5581006Y5263427D01*
X5263427Y5581006D01*
X4889994Y5830527D01*
X4475057Y6002399D01*
X4034562Y6090019D01*
X3585438Y6090019D01*
X3144943Y6002399D01*
X2730006Y5830527D01*
X2356573Y5581006D01*
X2038994Y5263427D01*
X1789473Y4889994D01*
X1617601Y4475057D01*
X1529981Y4034562D01*
X500000Y4034562D01*
X500000Y11650693D01*
X5596344Y11650693D01*
X5599971Y11613866D01*
X5599971Y11613859D01*
X5610824Y11503668D01*
X5653710Y11362293D01*
X5723352Y11232001D01*
X5817076Y11117799D01*
X5845685Y11094320D01*
X10634304Y6305700D01*
X10657779Y6277096D01*
X10686382Y6253622D01*
X10686390Y6253614D01*
X10771981Y6183371D01*
X10902273Y6113729D01*
X11043648Y6070843D01*
X11190674Y6056363D01*
X11227512Y6059991D01*
X18271080Y6059989D01*
X18307908Y6056362D01*
X18344735Y6059989D01*
X18344742Y6059989D01*
X18454933Y6070842D01*
X18596308Y6113728D01*
X18726600Y6183370D01*
X18840802Y6277094D01*
X18864281Y6305703D01*
X34570050Y22011472D01*
X34731298Y21850224D01*
X34944219Y21707955D01*
X35180804Y21609958D01*
X35281140Y21590000D01*
X35180804Y21570042D01*
X34944219Y21472045D01*
X34731298Y21329776D01*
X34550224Y21148702D01*
X34407955Y20935781D01*
X34309958Y20699196D01*
X34260000Y20448039D01*
X34260000Y20191961D01*
X34309958Y19940804D01*
X34407955Y19704219D01*
X34550224Y19491298D01*
X34731298Y19310224D01*
X34944219Y19167955D01*
X35180804Y19069958D01*
X35281140Y19050000D01*
X35180804Y19030042D01*
X34944219Y18932045D01*
X34731298Y18789776D01*
X34550224Y18608702D01*
X34407955Y18395781D01*
X34309958Y18159196D01*
X34260000Y17908039D01*
X34260000Y17651961D01*
X34309958Y17400804D01*
X34407955Y17164219D01*
X34550224Y16951298D01*
X34731298Y16770224D01*
X34944219Y16627955D01*
X35180804Y16529958D01*
X35281140Y16510000D01*
X35180804Y16490042D01*
X34944219Y16392045D01*
X34731298Y16249776D01*
X34550224Y16068702D01*
X34407955Y15855781D01*
X34309958Y15619196D01*
X34260000Y15368039D01*
X34260000Y15111961D01*
X34309958Y14860804D01*
X34407955Y14624219D01*
X34550224Y14411298D01*
X34731298Y14230224D01*
X34944219Y14087955D01*
X35180804Y13989958D01*
X35431961Y13940000D01*
X35688039Y13940000D01*
X35939196Y13989958D01*
X36175781Y14087955D01*
X36388702Y14230224D01*
X36569776Y14411298D01*
X36712045Y14624219D01*
X36810042Y14860804D01*
X36860000Y15111961D01*
X36860000Y15368039D01*
X36810042Y15619196D01*
X36712045Y15855781D01*
X36569776Y16068702D01*
X36388702Y16249776D01*
X36175781Y16392045D01*
X35939196Y16490042D01*
X35838860Y16510000D01*
X35939196Y16529958D01*
X36175781Y16627955D01*
X36388702Y16770224D01*
X36569776Y16951298D01*
X36712045Y17164219D01*
X36810042Y17400804D01*
X36860000Y17651961D01*
X36860000Y17908039D01*
X36810042Y18159196D01*
X36712045Y18395781D01*
X36569776Y18608702D01*
X36388702Y18789776D01*
X36175781Y18932045D01*
X35939196Y19030042D01*
X35838860Y19050000D01*
X35939196Y19069958D01*
X36175781Y19167955D01*
X36388702Y19310224D01*
X36569776Y19491298D01*
X36712045Y19704219D01*
X36810042Y19940804D01*
X36860000Y20191961D01*
X36860000Y20448039D01*
X36841534Y20540875D01*
X39874287Y23573627D01*
X39902895Y23597105D01*
X39996619Y23711307D01*
X40066261Y23841599D01*
X40109147Y23982974D01*
X40120000Y24093165D01*
X40120000Y24093172D01*
X40123627Y24130000D01*
X40120000Y24166828D01*
X40120000Y27903173D01*
X40123627Y27940000D01*
X40120000Y27976828D01*
X40120000Y27976835D01*
X40109147Y28087026D01*
X40066261Y28228401D01*
X39996619Y28358693D01*
X39902895Y28472895D01*
X39874286Y28496374D01*
X35529012Y32841647D01*
X35540000Y32896886D01*
X35540000Y33143114D01*
X35491963Y33384611D01*
X35397735Y33612097D01*
X35260938Y33816828D01*
X35086828Y33990938D01*
X34882097Y34127735D01*
X34654611Y34221963D01*
X34413114Y34270000D01*
X34166886Y34270000D01*
X33925389Y34221963D01*
X33697903Y34127735D01*
X33493172Y33990938D01*
X33319062Y33816828D01*
X33182265Y33612097D01*
X33088037Y33384611D01*
X33040000Y33143114D01*
X33040000Y32896886D01*
X33088037Y32655389D01*
X33182265Y32427903D01*
X33319062Y32223172D01*
X33493172Y32049062D01*
X33697903Y31912265D01*
X33925389Y31818037D01*
X34166886Y31770000D01*
X34413114Y31770000D01*
X34468353Y31780988D01*
X38620001Y27629339D01*
X38620000Y26633166D01*
X38620001Y26633156D01*
X38620000Y24440660D01*
X36847262Y22667921D01*
X36860000Y22731961D01*
X36860000Y22988039D01*
X36810042Y23239196D01*
X36712045Y23475781D01*
X36569776Y23688702D01*
X36388702Y23869776D01*
X36175781Y24012045D01*
X35939196Y24110042D01*
X35838860Y24130000D01*
X35939196Y24149958D01*
X36175781Y24247955D01*
X36388702Y24390224D01*
X36569776Y24571298D01*
X36712045Y24784219D01*
X36810042Y25020804D01*
X36860000Y25271961D01*
X36860000Y25528039D01*
X36810042Y25779196D01*
X36712045Y26015781D01*
X36569776Y26228702D01*
X36388702Y26409776D01*
X36175781Y26552045D01*
X35939196Y26650042D01*
X35838860Y26670000D01*
X35939196Y26689958D01*
X36175781Y26787955D01*
X36388702Y26930224D01*
X36569776Y27111298D01*
X36712045Y27324219D01*
X36810042Y27560804D01*
X36860000Y27811961D01*
X36860000Y28068039D01*
X36810042Y28319196D01*
X36712045Y28555781D01*
X36569776Y28768702D01*
X36388702Y28949776D01*
X36175781Y29092045D01*
X35939196Y29190042D01*
X35688039Y29240000D01*
X35431961Y29240000D01*
X35180804Y29190042D01*
X34944219Y29092045D01*
X34731298Y28949776D01*
X34550224Y28768702D01*
X34497637Y28690000D01*
X33457673Y28690000D01*
X31230000Y30802391D01*
X31230000Y35523176D01*
X31233627Y35560001D01*
X31230000Y35596826D01*
X31230000Y35596835D01*
X31219147Y35707026D01*
X31176261Y35848401D01*
X31106619Y35978693D01*
X31095391Y35992374D01*
X31036376Y36064285D01*
X31036369Y36064292D01*
X31012895Y36092895D01*
X30984292Y36116369D01*
X29179012Y37921647D01*
X29190000Y37976886D01*
X29190000Y38223114D01*
X29141963Y38464611D01*
X29047735Y38692097D01*
X28910938Y38896828D01*
X28736828Y39070938D01*
X28532097Y39207735D01*
X28304611Y39301963D01*
X28063114Y39350000D01*
X27816886Y39350000D01*
X27575389Y39301963D01*
X27347903Y39207735D01*
X27143172Y39070938D01*
X26969062Y38896828D01*
X26889999Y38778502D01*
X26889999Y39660710D01*
X27020762Y39791472D01*
X27143172Y39669062D01*
X27347903Y39532265D01*
X27575389Y39438037D01*
X27816886Y39390000D01*
X28063114Y39390000D01*
X28304611Y39438037D01*
X28532097Y39532265D01*
X28736828Y39669062D01*
X28910938Y39843172D01*
X29047735Y40047903D01*
X29141963Y40275389D01*
X29190000Y40516886D01*
X29190000Y40763114D01*
X29141963Y41004611D01*
X29047735Y41232097D01*
X28910938Y41436828D01*
X28736828Y41610938D01*
X28532097Y41747735D01*
X28304611Y41841963D01*
X28063114Y41890000D01*
X27816886Y41890000D01*
X27575389Y41841963D01*
X27347903Y41747735D01*
X27143172Y41610938D01*
X26969062Y41436828D01*
X26937773Y41390000D01*
X26845457Y41390000D01*
X26808629Y41393627D01*
X26771802Y41390000D01*
X26771795Y41390000D01*
X26661604Y41379147D01*
X26520229Y41336261D01*
X26389937Y41266619D01*
X26275735Y41172895D01*
X26252256Y41144286D01*
X25635714Y40527743D01*
X25607105Y40504264D01*
X25583626Y40475655D01*
X25583623Y40475652D01*
X25556130Y40442151D01*
X25513381Y40390062D01*
X25492823Y40351600D01*
X25443738Y40259769D01*
X25400852Y40118394D01*
X25386372Y39971369D01*
X25390000Y39934532D01*
X25389999Y34783990D01*
X24916324Y34310315D01*
X24921298Y34316375D01*
X24986629Y34395981D01*
X25056271Y34526273D01*
X25099157Y34667648D01*
X25108565Y34763172D01*
X25110010Y34777839D01*
X25110010Y34777846D01*
X25113637Y34814674D01*
X25110010Y34851502D01*
X25110010Y41829351D01*
X25710660Y42430000D01*
X26937773Y42430000D01*
X26969062Y42383172D01*
X27143172Y42209062D01*
X27347903Y42072265D01*
X27575389Y41978037D01*
X27816886Y41930000D01*
X28063114Y41930000D01*
X28304611Y41978037D01*
X28532097Y42072265D01*
X28736828Y42209062D01*
X28910938Y42383172D01*
X29047735Y42587903D01*
X29141963Y42815389D01*
X29190000Y43056886D01*
X29190000Y43303114D01*
X29141963Y43544611D01*
X29047735Y43772097D01*
X28910938Y43976828D01*
X28736828Y44150938D01*
X28532097Y44287735D01*
X28304611Y44381963D01*
X28063114Y44430000D01*
X27816886Y44430000D01*
X27575389Y44381963D01*
X27347903Y44287735D01*
X27143172Y44150938D01*
X26969062Y43976828D01*
X26937773Y43930000D01*
X25436827Y43930000D01*
X25400000Y43933627D01*
X25363172Y43930000D01*
X25363165Y43930000D01*
X25252974Y43919147D01*
X25111599Y43876261D01*
X24981307Y43806619D01*
X24867105Y43712895D01*
X24843626Y43684286D01*
X23855725Y42696384D01*
X23827116Y42672905D01*
X23803637Y42644296D01*
X23803634Y42644293D01*
X23786672Y42623624D01*
X23733392Y42558703D01*
X23721588Y42536619D01*
X23663749Y42428410D01*
X23620863Y42287035D01*
X23610000Y42176736D01*
X23610000Y42869341D01*
X25710661Y44970000D01*
X26937773Y44970000D01*
X26969062Y44923172D01*
X27143172Y44749062D01*
X27347903Y44612265D01*
X27575389Y44518037D01*
X27816886Y44470000D01*
X28063114Y44470000D01*
X28304611Y44518037D01*
X28532097Y44612265D01*
X28736828Y44749062D01*
X28910938Y44923172D01*
X29047735Y45127903D01*
X29141963Y45355389D01*
X29190000Y45596886D01*
X29190000Y45843114D01*
X29141963Y46084611D01*
X29047735Y46312097D01*
X28910938Y46516828D01*
X28736828Y46690938D01*
X28532097Y46827735D01*
X28304611Y46921963D01*
X28063114Y46970000D01*
X27816886Y46970000D01*
X27575389Y46921963D01*
X27347903Y46827735D01*
X27143172Y46690938D01*
X26969062Y46516828D01*
X26937773Y46470000D01*
X25436824Y46470000D01*
X25399999Y46473627D01*
X25363174Y46470000D01*
X25363165Y46470000D01*
X25252974Y46459147D01*
X25111599Y46416261D01*
X24981307Y46346619D01*
X24981305Y46346618D01*
X24981306Y46346618D01*
X24895715Y46276376D01*
X24895708Y46276369D01*
X24867105Y46252895D01*
X24843630Y46224291D01*
X22355717Y43736376D01*
X22327106Y43712895D01*
X22303627Y43684286D01*
X22303624Y43684283D01*
X22276131Y43650782D01*
X22233382Y43598693D01*
X22204475Y43544611D01*
X22163739Y43468400D01*
X22120853Y43327025D01*
X22106373Y43180000D01*
X22110001Y43143163D01*
X22110000Y35746658D01*
X21495964Y35132621D01*
X21521963Y35195389D01*
X21570000Y35436886D01*
X21570000Y35683114D01*
X21521963Y35924611D01*
X21427735Y36152097D01*
X21290938Y36356828D01*
X21116828Y36530938D01*
X20912097Y36667735D01*
X20684611Y36761963D01*
X20443114Y36810000D01*
X20196886Y36810000D01*
X19955389Y36761963D01*
X19727903Y36667735D01*
X19523172Y36530938D01*
X19349062Y36356828D01*
X19317773Y36310000D01*
X15497491Y36310000D01*
X15460663Y36313627D01*
X15423836Y36310000D01*
X15423829Y36310000D01*
X15313638Y36299147D01*
X15172263Y36256261D01*
X15041971Y36186619D01*
X14956299Y36116309D01*
X16189990Y37350000D01*
X19317773Y37350000D01*
X19349062Y37303172D01*
X19523172Y37129062D01*
X19727903Y36992265D01*
X19955389Y36898037D01*
X20196886Y36850000D01*
X20443114Y36850000D01*
X20684611Y36898037D01*
X20912097Y36992265D01*
X21116828Y37129062D01*
X21290938Y37303172D01*
X21427735Y37507903D01*
X21521963Y37735389D01*
X21570000Y37976886D01*
X21570000Y38223114D01*
X21521963Y38464611D01*
X21427735Y38692097D01*
X21290938Y38896828D01*
X21116828Y39070938D01*
X20912097Y39207735D01*
X20684611Y39301963D01*
X20617520Y39315308D01*
X20710780Y39365157D01*
X20817369Y39452632D01*
X20867594Y39513831D01*
X20912097Y39532265D01*
X21116828Y39669062D01*
X21290938Y39843172D01*
X21427735Y40047903D01*
X21521963Y40275389D01*
X21570000Y40516886D01*
X21570000Y40763114D01*
X21521963Y41004611D01*
X21427735Y41232097D01*
X21290938Y41436828D01*
X21116828Y41610938D01*
X20912097Y41747735D01*
X20684611Y41841963D01*
X20443114Y41890000D01*
X20196886Y41890000D01*
X19955389Y41841963D01*
X19727903Y41747735D01*
X19523172Y41610938D01*
X19349062Y41436828D01*
X19317773Y41390000D01*
X16334820Y41390000D01*
X16297995Y41393627D01*
X16261170Y41390000D01*
X16261161Y41390000D01*
X16150970Y41379147D01*
X16009595Y41336261D01*
X15879303Y41266619D01*
X15879301Y41266618D01*
X15879302Y41266618D01*
X15793711Y41196376D01*
X15793704Y41196369D01*
X15765101Y41172895D01*
X15741626Y41144291D01*
X5845687Y31248350D01*
X5817078Y31224871D01*
X5793599Y31196262D01*
X5793596Y31196259D01*
X5783267Y31183673D01*
X5723354Y31110669D01*
X5690696Y31049570D01*
X5653711Y30980376D01*
X5610825Y30839001D01*
X5596345Y30691976D01*
X5599973Y30655139D01*
X5599971Y11687520D01*
X5596344Y11650693D01*
X500000Y11650693D01*
X500000Y39000000D01*
X3727823Y39000000D01*
X3727823Y37200000D01*
X3736511Y37111785D01*
X3762243Y37026959D01*
X3804029Y36948784D01*
X3860263Y36880263D01*
X3928784Y36824029D01*
X4006959Y36782243D01*
X4091785Y36756511D01*
X4180000Y36747823D01*
X5980000Y36747823D01*
X6068215Y36756511D01*
X6153041Y36782243D01*
X6231216Y36824029D01*
X6299737Y36880263D01*
X6355971Y36948784D01*
X6397757Y37026959D01*
X6423489Y37111785D01*
X6432177Y37200000D01*
X6432177Y37447767D01*
X6571387Y37239425D01*
X6759425Y37051387D01*
X6980535Y36903646D01*
X7226220Y36801880D01*
X7487037Y36750000D01*
X7752963Y36750000D01*
X8013780Y36801880D01*
X8259465Y36903646D01*
X8480575Y37051387D01*
X8668613Y37239425D01*
X8816354Y37460535D01*
X8918120Y37706220D01*
X8970000Y37967037D01*
X8970000Y38232963D01*
X8944055Y38363396D01*
X13010660Y42430000D01*
X19317773Y42430000D01*
X19349062Y42383172D01*
X19523172Y42209062D01*
X19727903Y42072265D01*
X19955389Y41978037D01*
X20196886Y41930000D01*
X20443114Y41930000D01*
X20684611Y41978037D01*
X20912097Y42072265D01*
X21116828Y42209062D01*
X21290938Y42383172D01*
X21427735Y42587903D01*
X21521963Y42815389D01*
X21570000Y43056886D01*
X21570000Y43303114D01*
X21521963Y43544611D01*
X21427735Y43772097D01*
X21290938Y43976828D01*
X21116828Y44150938D01*
X20912097Y44287735D01*
X20684611Y44381963D01*
X20443114Y44430000D01*
X20196886Y44430000D01*
X19955389Y44381963D01*
X19727903Y44287735D01*
X19523172Y44150938D01*
X19349062Y43976828D01*
X19317773Y43930000D01*
X12736827Y43930000D01*
X12700000Y43933627D01*
X12663172Y43930000D01*
X12663165Y43930000D01*
X12552974Y43919147D01*
X12411599Y43876261D01*
X12281307Y43806619D01*
X12167105Y43712895D01*
X12143626Y43684286D01*
X7883396Y39424055D01*
X7752963Y39450000D01*
X7487037Y39450000D01*
X7226220Y39398120D01*
X6980535Y39296354D01*
X6759425Y39148613D01*
X6571387Y38960575D01*
X6432177Y38752233D01*
X6432177Y39000000D01*
X6423489Y39088215D01*
X6397757Y39173041D01*
X6355971Y39251216D01*
X6299737Y39319737D01*
X6231216Y39375971D01*
X6153041Y39417757D01*
X6068215Y39443489D01*
X5980000Y39452177D01*
X5830000Y39452177D01*
X5830000Y41599341D01*
X9200660Y44970000D01*
X11697773Y44970000D01*
X11729062Y44923172D01*
X11903172Y44749062D01*
X12107903Y44612265D01*
X12335389Y44518037D01*
X12576886Y44470000D01*
X12823114Y44470000D01*
X13064611Y44518037D01*
X13292097Y44612265D01*
X13496828Y44749062D01*
X13670938Y44923172D01*
X13807735Y45127903D01*
X13901963Y45355389D01*
X13950000Y45596886D01*
X13950000Y45843114D01*
X19070000Y45843114D01*
X19070000Y45596886D01*
X19118037Y45355389D01*
X19212265Y45127903D01*
X19349062Y44923172D01*
X19523172Y44749062D01*
X19727903Y44612265D01*
X19955389Y44518037D01*
X20196886Y44470000D01*
X20443114Y44470000D01*
X20684611Y44518037D01*
X20912097Y44612265D01*
X21116828Y44749062D01*
X21290938Y44923172D01*
X21427735Y45127903D01*
X21521963Y45355389D01*
X21570000Y45596886D01*
X21570000Y45843114D01*
X21521963Y46084611D01*
X21427735Y46312097D01*
X21290938Y46516828D01*
X21116828Y46690938D01*
X20912097Y46827735D01*
X20684611Y46921963D01*
X20443114Y46970000D01*
X20196886Y46970000D01*
X19955389Y46921963D01*
X19727903Y46827735D01*
X19523172Y46690938D01*
X19349062Y46516828D01*
X19212265Y46312097D01*
X19118037Y46084611D01*
X19070000Y45843114D01*
X13950000Y45843114D01*
X13901963Y46084611D01*
X13807735Y46312097D01*
X13670938Y46516828D01*
X13496828Y46690938D01*
X13292097Y46827735D01*
X13064611Y46921963D01*
X12823114Y46970000D01*
X12576886Y46970000D01*
X12335389Y46921963D01*
X12107903Y46827735D01*
X11903172Y46690938D01*
X11729062Y46516828D01*
X11697773Y46470000D01*
X8926828Y46470000D01*
X8890000Y46473627D01*
X8853172Y46470000D01*
X8853165Y46470000D01*
X8742974Y46459147D01*
X8601599Y46416261D01*
X8471307Y46346619D01*
X8357105Y46252895D01*
X8333626Y46224286D01*
X4575715Y42466374D01*
X4547106Y42442895D01*
X4523627Y42414286D01*
X4523624Y42414283D01*
X4498092Y42383172D01*
X4453382Y42328693D01*
X4431116Y42287036D01*
X4383739Y42198400D01*
X4340853Y42057025D01*
X4326373Y41910000D01*
X4330001Y41873163D01*
X4330000Y39452177D01*
X4180000Y39452177D01*
X4091785Y39443489D01*
X4006959Y39417757D01*
X3928784Y39375971D01*
X3860263Y39319737D01*
X3804029Y39251216D01*
X3762243Y39173041D01*
X3736511Y39088215D01*
X3727823Y39000000D01*
X500000Y39000000D01*
X500000Y48383114D01*
X19070000Y48383114D01*
X19070000Y48136886D01*
X19118037Y47895389D01*
X19212265Y47667903D01*
X19349062Y47463172D01*
X19523172Y47289062D01*
X19727903Y47152265D01*
X19955389Y47058037D01*
X20196886Y47010000D01*
X20443114Y47010000D01*
X20684611Y47058037D01*
X20912097Y47152265D01*
X21116828Y47289062D01*
X21290938Y47463172D01*
X21427735Y47667903D01*
X21521963Y47895389D01*
X21570000Y48136886D01*
X21570000Y48383114D01*
X21521963Y48624611D01*
X21427735Y48852097D01*
X21290938Y49056828D01*
X21116828Y49230938D01*
X20912097Y49367735D01*
X20684611Y49461963D01*
X20443114Y49510000D01*
X20196886Y49510000D01*
X19955389Y49461963D01*
X19727903Y49367735D01*
X19523172Y49230938D01*
X19349062Y49056828D01*
X19212265Y48852097D01*
X19118037Y48624611D01*
X19070000Y48383114D01*
X500000Y48383114D01*
X500000Y65620000D01*
X5047823Y65620000D01*
X5047823Y63920000D01*
X5056511Y63831785D01*
X5082243Y63746959D01*
X5124029Y63668784D01*
X5180263Y63600263D01*
X5248784Y63544029D01*
X5326959Y63502243D01*
X5411785Y63476511D01*
X5500000Y63467823D01*
X5600000Y63467823D01*
X5600001Y56942363D01*
X5521298Y56889776D01*
X5340224Y56708702D01*
X5197955Y56495781D01*
X5099958Y56259196D01*
X5050000Y56008039D01*
X5050000Y55751961D01*
X5099958Y55500804D01*
X5197955Y55264219D01*
X5340224Y55051298D01*
X5521298Y54870224D01*
X5734219Y54727955D01*
X5970804Y54629958D01*
X6221961Y54580000D01*
X6478039Y54580000D01*
X6729196Y54629958D01*
X6965781Y54727955D01*
X7178702Y54870224D01*
X7359776Y55051298D01*
X7502045Y55264219D01*
X7600042Y55500804D01*
X7650000Y55751961D01*
X7650000Y56008039D01*
X7600042Y56259196D01*
X7502045Y56495781D01*
X7359776Y56708702D01*
X7178702Y56889776D01*
X7100000Y56942363D01*
X7100000Y63467823D01*
X7200000Y63467823D01*
X7288215Y63476511D01*
X7373041Y63502243D01*
X7451216Y63544029D01*
X7519737Y63600263D01*
X7575971Y63668784D01*
X7617757Y63746959D01*
X7643489Y63831785D01*
X7652177Y63920000D01*
X7652177Y65620000D01*
X7643489Y65708215D01*
X7617757Y65793041D01*
X7575971Y65871216D01*
X7519737Y65939737D01*
X7451216Y65995971D01*
X7373041Y66037757D01*
X7288215Y66063489D01*
X7200000Y66072177D01*
X6758695Y66072177D01*
X6965781Y66157955D01*
X7178702Y66300224D01*
X7359776Y66481298D01*
X7412363Y66560000D01*
X8579341Y66560000D01*
X9410000Y65729340D01*
X9410001Y59726837D01*
X9406373Y59690000D01*
X9420853Y59542975D01*
X9463739Y59401600D01*
X9463740Y59401599D01*
X9533382Y59271307D01*
X9576131Y59219218D01*
X9603624Y59185717D01*
X9603627Y59185714D01*
X9627106Y59157105D01*
X9655715Y59133626D01*
X12143630Y56645709D01*
X12167105Y56617105D01*
X12195708Y56593631D01*
X12195715Y56593624D01*
X12269925Y56532722D01*
X12281307Y56523381D01*
X12411599Y56453739D01*
X12552974Y56410853D01*
X12663165Y56400000D01*
X12663174Y56400000D01*
X12699999Y56396373D01*
X12736824Y56400000D01*
X16519339Y56400000D01*
X19146357Y53772981D01*
X19118037Y53704611D01*
X19070000Y53463114D01*
X19070000Y53216886D01*
X19118037Y52975389D01*
X19212265Y52747903D01*
X19349062Y52543172D01*
X19523172Y52369062D01*
X19727903Y52232265D01*
X19955389Y52138037D01*
X20196886Y52090000D01*
X20443114Y52090000D01*
X20684611Y52138037D01*
X20912097Y52232265D01*
X21116828Y52369062D01*
X21290938Y52543172D01*
X21322227Y52590000D01*
X25089341Y52590000D01*
X26700988Y50978352D01*
X26690000Y50923114D01*
X26690000Y50676886D01*
X26738037Y50435389D01*
X26832265Y50207903D01*
X26969062Y50003172D01*
X27143172Y49829062D01*
X27190000Y49797772D01*
X27190001Y49262228D01*
X27143172Y49230938D01*
X26969062Y49056828D01*
X26832265Y48852097D01*
X26738037Y48624611D01*
X26690000Y48383114D01*
X26690000Y48136886D01*
X26738037Y47895389D01*
X26832265Y47667903D01*
X26969062Y47463172D01*
X27143172Y47289062D01*
X27347903Y47152265D01*
X27575389Y47058037D01*
X27816886Y47010000D01*
X28063114Y47010000D01*
X28304611Y47058037D01*
X28532097Y47152265D01*
X28736828Y47289062D01*
X28910938Y47463172D01*
X29047735Y47667903D01*
X29141963Y47895389D01*
X29190000Y48136886D01*
X29190000Y48383114D01*
X29141963Y48624611D01*
X29047735Y48852097D01*
X28910938Y49056828D01*
X28736828Y49230938D01*
X28690000Y49262227D01*
X28690000Y49797773D01*
X28736828Y49829062D01*
X28910938Y50003172D01*
X28925049Y50024291D01*
X29975716Y48973624D01*
X29975722Y48973619D01*
X33050988Y45898353D01*
X33040000Y45843114D01*
X33040000Y45596886D01*
X33088037Y45355389D01*
X33182265Y45127903D01*
X33319062Y44923172D01*
X33493172Y44749062D01*
X33540001Y44717772D01*
X33540000Y41842177D01*
X33451785Y41833489D01*
X33366959Y41807757D01*
X33288784Y41765971D01*
X33220263Y41709737D01*
X33164029Y41641216D01*
X33122243Y41563041D01*
X33096511Y41478215D01*
X33087823Y41390000D01*
X33087823Y39890000D01*
X33096511Y39801785D01*
X33122243Y39716959D01*
X33164029Y39638784D01*
X33220263Y39570263D01*
X33288784Y39514029D01*
X33366959Y39472243D01*
X33451785Y39446511D01*
X33540000Y39437823D01*
X35040000Y39437823D01*
X35128215Y39446511D01*
X35213041Y39472243D01*
X35291216Y39514029D01*
X35359737Y39570263D01*
X35415971Y39638784D01*
X35457757Y39716959D01*
X35483489Y39801785D01*
X35492177Y39890000D01*
X35492177Y41390000D01*
X35483489Y41478215D01*
X35457757Y41563041D01*
X35415971Y41641216D01*
X35359737Y41709737D01*
X35291216Y41765971D01*
X35213041Y41807757D01*
X35128215Y41833489D01*
X35040000Y41842177D01*
X35040000Y44717773D01*
X35086828Y44749062D01*
X35260938Y44923172D01*
X35397735Y45127903D01*
X35491963Y45355389D01*
X35540000Y45596886D01*
X35540000Y45843114D01*
X35491963Y46084611D01*
X35397735Y46312097D01*
X35260938Y46516828D01*
X35086828Y46690938D01*
X34882097Y46827735D01*
X34654611Y46921963D01*
X34413114Y46970000D01*
X34166886Y46970000D01*
X34111647Y46959012D01*
X31036381Y50034278D01*
X31036376Y50034284D01*
X29766378Y51304281D01*
X29742895Y51332895D01*
X29628693Y51426619D01*
X29498401Y51496261D01*
X29357026Y51539147D01*
X29246835Y51550000D01*
X29246827Y51550000D01*
X29210000Y51553627D01*
X29173173Y51550000D01*
X28942227Y51550000D01*
X28910938Y51596828D01*
X28736828Y51770938D01*
X28532097Y51907735D01*
X28304611Y52001963D01*
X28063114Y52050000D01*
X27816886Y52050000D01*
X27761648Y52039012D01*
X26150000Y53650659D01*
X26150000Y56003114D01*
X26690000Y56003114D01*
X26690000Y55756886D01*
X26738037Y55515389D01*
X26832265Y55287903D01*
X26969062Y55083172D01*
X27143172Y54909062D01*
X27347903Y54772265D01*
X27575389Y54678037D01*
X27816886Y54630000D01*
X28063114Y54630000D01*
X28304611Y54678037D01*
X28532097Y54772265D01*
X28736828Y54909062D01*
X28910938Y55083172D01*
X28942227Y55130000D01*
X32709341Y55130000D01*
X36080001Y51759339D01*
X36080000Y41582094D01*
X36065045Y41572101D01*
X35897899Y41404955D01*
X35766574Y41208413D01*
X35676116Y40990027D01*
X35630000Y40758190D01*
X35630000Y40521810D01*
X35676116Y40289973D01*
X35766574Y40071587D01*
X35897899Y39875045D01*
X36065045Y39707899D01*
X36080000Y39697906D01*
X36080001Y38136837D01*
X36076373Y38100000D01*
X36090853Y37952975D01*
X36133739Y37811600D01*
X36133740Y37811599D01*
X36203382Y37681307D01*
X36246131Y37629218D01*
X36273624Y37595717D01*
X36273625Y37595716D01*
X36297106Y37567105D01*
X36325715Y37543626D01*
X40670988Y33198352D01*
X40660000Y33143114D01*
X40660000Y32896886D01*
X40708037Y32655389D01*
X40802265Y32427903D01*
X40939062Y32223172D01*
X41113172Y32049062D01*
X41317903Y31912265D01*
X41545389Y31818037D01*
X41786886Y31770000D01*
X42033114Y31770000D01*
X42274611Y31818037D01*
X42502097Y31912265D01*
X42706828Y32049062D01*
X42880938Y32223172D01*
X43017735Y32427903D01*
X43111963Y32655389D01*
X43160000Y32896886D01*
X43160000Y33143114D01*
X43111963Y33384611D01*
X43017735Y33612097D01*
X42880938Y33816828D01*
X42706828Y33990938D01*
X42502097Y34127735D01*
X42274611Y34221963D01*
X42033114Y34270000D01*
X41786886Y34270000D01*
X41731648Y34259012D01*
X37580000Y38410659D01*
X37580000Y39697906D01*
X37594955Y39707899D01*
X37762101Y39875045D01*
X37893426Y40071587D01*
X37983884Y40289973D01*
X38030000Y40521810D01*
X38030000Y40758190D01*
X38170000Y40758190D01*
X38170000Y40521810D01*
X38216116Y40289973D01*
X38306574Y40071587D01*
X38437899Y39875045D01*
X38605045Y39707899D01*
X38801587Y39576574D01*
X39019973Y39486116D01*
X39251810Y39440000D01*
X39488190Y39440000D01*
X39720027Y39486116D01*
X39938413Y39576574D01*
X40134955Y39707899D01*
X40302101Y39875045D01*
X40433426Y40071587D01*
X40523884Y40289973D01*
X40570000Y40521810D01*
X40570000Y40758190D01*
X40523884Y40990027D01*
X40433426Y41208413D01*
X40302101Y41404955D01*
X40134955Y41572101D01*
X39938413Y41703426D01*
X39720027Y41793884D01*
X39488190Y41840000D01*
X39251810Y41840000D01*
X39019973Y41793884D01*
X38801587Y41703426D01*
X38605045Y41572101D01*
X38437899Y41404955D01*
X38306574Y41208413D01*
X38216116Y40990027D01*
X38170000Y40758190D01*
X38030000Y40758190D01*
X37983884Y40990027D01*
X37893426Y41208413D01*
X37762101Y41404955D01*
X37594955Y41572101D01*
X37580000Y41582094D01*
X37580000Y52033172D01*
X37583627Y52070000D01*
X37580000Y52106828D01*
X37580000Y52106835D01*
X37569147Y52217026D01*
X37526261Y52358401D01*
X37456619Y52488693D01*
X37362895Y52602895D01*
X37334286Y52626374D01*
X33576379Y56384280D01*
X33552895Y56412895D01*
X33438693Y56506619D01*
X33308401Y56576261D01*
X33167026Y56619147D01*
X33056835Y56630000D01*
X33056827Y56630000D01*
X33020000Y56633627D01*
X32983173Y56630000D01*
X28942227Y56630000D01*
X28910938Y56676828D01*
X28736828Y56850938D01*
X28532097Y56987735D01*
X28304611Y57081963D01*
X28063114Y57130000D01*
X27816886Y57130000D01*
X27575389Y57081963D01*
X27347903Y56987735D01*
X27143172Y56850938D01*
X26969062Y56676828D01*
X26832265Y56472097D01*
X26738037Y56244611D01*
X26690000Y56003114D01*
X26150000Y56003114D01*
X26150000Y58543114D01*
X26690000Y58543114D01*
X26690000Y58296886D01*
X26738037Y58055389D01*
X26832265Y57827903D01*
X26969062Y57623172D01*
X27143172Y57449062D01*
X27347903Y57312265D01*
X27575389Y57218037D01*
X27816886Y57170000D01*
X28063114Y57170000D01*
X28304611Y57218037D01*
X28532097Y57312265D01*
X28736828Y57449062D01*
X28910938Y57623172D01*
X29047735Y57827903D01*
X29141963Y58055389D01*
X29190000Y58296886D01*
X29190000Y58543114D01*
X29141963Y58784611D01*
X29047735Y59012097D01*
X28910938Y59216828D01*
X28736828Y59390938D01*
X28532097Y59527735D01*
X28304611Y59621963D01*
X28063114Y59670000D01*
X27816886Y59670000D01*
X27575389Y59621963D01*
X27347903Y59527735D01*
X27143172Y59390938D01*
X26969062Y59216828D01*
X26832265Y59012097D01*
X26738037Y58784611D01*
X26690000Y58543114D01*
X26150000Y58543114D01*
X26150000Y61083114D01*
X26690000Y61083114D01*
X26690000Y60836886D01*
X26738037Y60595389D01*
X26832265Y60367903D01*
X26969062Y60163172D01*
X27143172Y59989062D01*
X27347903Y59852265D01*
X27575389Y59758037D01*
X27816886Y59710000D01*
X28063114Y59710000D01*
X28304611Y59758037D01*
X28532097Y59852265D01*
X28736828Y59989062D01*
X28910938Y60163172D01*
X29047735Y60367903D01*
X29141963Y60595389D01*
X29190000Y60836886D01*
X29190000Y61083114D01*
X29141963Y61324611D01*
X29047735Y61552097D01*
X28910938Y61756828D01*
X28736828Y61930938D01*
X28532097Y62067735D01*
X28304611Y62161963D01*
X28063114Y62210000D01*
X27816886Y62210000D01*
X27575389Y62161963D01*
X27347903Y62067735D01*
X27143172Y61930938D01*
X26969062Y61756828D01*
X26832265Y61552097D01*
X26738037Y61324611D01*
X26690000Y61083114D01*
X26150000Y61083114D01*
X26150000Y63623114D01*
X26690000Y63623114D01*
X26690000Y63376886D01*
X26738037Y63135389D01*
X26832265Y62907903D01*
X26969062Y62703172D01*
X27143172Y62529062D01*
X27347903Y62392265D01*
X27575389Y62298037D01*
X27816886Y62250000D01*
X28063114Y62250000D01*
X28304611Y62298037D01*
X28532097Y62392265D01*
X28736828Y62529062D01*
X28910938Y62703172D01*
X29047735Y62907903D01*
X29141963Y63135389D01*
X29190000Y63376886D01*
X29190000Y63623114D01*
X29141963Y63864611D01*
X29047735Y64092097D01*
X28910938Y64296828D01*
X28736828Y64470938D01*
X28532097Y64607735D01*
X28304611Y64701963D01*
X28063114Y64750000D01*
X27816886Y64750000D01*
X27575389Y64701963D01*
X27347903Y64607735D01*
X27143172Y64470938D01*
X26969062Y64296828D01*
X26832265Y64092097D01*
X26738037Y63864611D01*
X26690000Y63623114D01*
X26150000Y63623114D01*
X26150000Y66163114D01*
X26690000Y66163114D01*
X26690000Y65916886D01*
X26738037Y65675389D01*
X26832265Y65447903D01*
X26969062Y65243172D01*
X27143172Y65069062D01*
X27347903Y64932265D01*
X27575389Y64838037D01*
X27816886Y64790000D01*
X28063114Y64790000D01*
X28304611Y64838037D01*
X28532097Y64932265D01*
X28736828Y65069062D01*
X28910938Y65243172D01*
X29047735Y65447903D01*
X29141963Y65675389D01*
X29190000Y65916886D01*
X29190000Y66163114D01*
X29141963Y66404611D01*
X29047735Y66632097D01*
X28910938Y66836828D01*
X28736828Y67010938D01*
X28532097Y67147735D01*
X28304611Y67241963D01*
X28063114Y67290000D01*
X27816886Y67290000D01*
X27575389Y67241963D01*
X27347903Y67147735D01*
X27143172Y67010938D01*
X26969062Y66836828D01*
X26832265Y66632097D01*
X26738037Y66404611D01*
X26690000Y66163114D01*
X26150000Y66163114D01*
X26150000Y68269341D01*
X26716377Y68835717D01*
X26690000Y68703114D01*
X26690000Y68456886D01*
X26738037Y68215389D01*
X26832265Y67987903D01*
X26969062Y67783172D01*
X27143172Y67609062D01*
X27347903Y67472265D01*
X27575389Y67378037D01*
X27816886Y67330000D01*
X28063114Y67330000D01*
X28304611Y67378037D01*
X28532097Y67472265D01*
X28736828Y67609062D01*
X28910938Y67783172D01*
X29047735Y67987903D01*
X29141963Y68215389D01*
X29190000Y68456886D01*
X29190000Y68703114D01*
X29141963Y68944611D01*
X29047735Y69172097D01*
X28910938Y69376828D01*
X28736828Y69550938D01*
X28532097Y69687735D01*
X28304611Y69781963D01*
X28063114Y69830000D01*
X27816886Y69830000D01*
X27684283Y69803623D01*
X29520660Y71640000D01*
X31439341Y71640000D01*
X37639340Y65440000D01*
X35041905Y65440000D01*
X35041905Y61340000D01*
X38618095Y61340000D01*
X38618095Y64461245D01*
X39358466Y63720874D01*
X39340000Y63628039D01*
X39340000Y63371961D01*
X39389958Y63120804D01*
X39487955Y62884219D01*
X39630224Y62671298D01*
X39811298Y62490224D01*
X40024219Y62347955D01*
X40260804Y62249958D01*
X40511961Y62200000D01*
X40768039Y62200000D01*
X41019196Y62249958D01*
X41255781Y62347955D01*
X41468702Y62490224D01*
X41649776Y62671298D01*
X41792045Y62884219D01*
X41890042Y63120804D01*
X41940000Y63371961D01*
X41940000Y63628039D01*
X41890042Y63879196D01*
X41792045Y64115781D01*
X41649776Y64328702D01*
X41468702Y64509776D01*
X41255781Y64652045D01*
X41019196Y64750042D01*
X40918860Y64770000D01*
X41019196Y64789958D01*
X41255781Y64887955D01*
X41468702Y65030224D01*
X41649776Y65211298D01*
X41792045Y65424219D01*
X41890042Y65660804D01*
X41940000Y65911961D01*
X41940000Y66168039D01*
X41890042Y66419196D01*
X41792045Y66655781D01*
X41649776Y66868702D01*
X41468702Y67049776D01*
X41255781Y67192045D01*
X41019196Y67290042D01*
X40768039Y67340000D01*
X40511961Y67340000D01*
X40260804Y67290042D01*
X40024219Y67192045D01*
X39811298Y67049776D01*
X39630224Y66868702D01*
X39618903Y66851758D01*
X37580000Y68890659D01*
X37580000Y75137637D01*
X37658702Y75190224D01*
X37839776Y75371298D01*
X37982045Y75584219D01*
X38080042Y75820804D01*
X38130000Y76071961D01*
X38130000Y76328039D01*
X38080042Y76579196D01*
X37982045Y76815781D01*
X37839776Y77028702D01*
X37658702Y77209776D01*
X37445781Y77352045D01*
X37209196Y77450042D01*
X36958039Y77500000D01*
X36701961Y77500000D01*
X36450804Y77450042D01*
X36214219Y77352045D01*
X36001298Y77209776D01*
X35820224Y77028702D01*
X35677955Y76815781D01*
X35592177Y76608695D01*
X35592177Y77050000D01*
X35583489Y77138215D01*
X35557757Y77223041D01*
X35515971Y77301216D01*
X35459737Y77369737D01*
X35391216Y77425971D01*
X35313041Y77467757D01*
X35228215Y77493489D01*
X35140000Y77502177D01*
X33440000Y77502177D01*
X33351785Y77493489D01*
X33266959Y77467757D01*
X33188784Y77425971D01*
X33120263Y77369737D01*
X33064029Y77301216D01*
X33022243Y77223041D01*
X32996511Y77138215D01*
X32987823Y77050000D01*
X32987823Y76950000D01*
X29246827Y76950000D01*
X29210000Y76953627D01*
X29173172Y76950000D01*
X29173165Y76950000D01*
X29062974Y76939147D01*
X28921599Y76896261D01*
X28791307Y76826619D01*
X28677105Y76732895D01*
X28653626Y76704286D01*
X23625720Y71676379D01*
X23597105Y71652895D01*
X23503381Y71538692D01*
X23433739Y71408400D01*
X23390853Y71267025D01*
X23380000Y71156834D01*
X23380000Y71156827D01*
X23376373Y71120000D01*
X23380000Y71083173D01*
X23380001Y65080661D01*
X21543623Y63244283D01*
X21570000Y63376886D01*
X21570000Y63623114D01*
X21521963Y63864611D01*
X21427735Y64092097D01*
X21290938Y64296828D01*
X21116828Y64470938D01*
X20912097Y64607735D01*
X20684611Y64701963D01*
X20443114Y64750000D01*
X20196886Y64750000D01*
X19955389Y64701963D01*
X19727903Y64607735D01*
X19523172Y64470938D01*
X19349062Y64296828D01*
X19317773Y64250000D01*
X15032363Y64250000D01*
X14979776Y64328702D01*
X14798702Y64509776D01*
X14585781Y64652045D01*
X14349196Y64750042D01*
X14248860Y64770000D01*
X14349196Y64789958D01*
X14585781Y64887955D01*
X14798702Y65030224D01*
X14979776Y65211298D01*
X15032363Y65290000D01*
X19317773Y65290000D01*
X19349062Y65243172D01*
X19523172Y65069062D01*
X19727903Y64932265D01*
X19955389Y64838037D01*
X20196886Y64790000D01*
X20443114Y64790000D01*
X20684611Y64838037D01*
X20912097Y64932265D01*
X21116828Y65069062D01*
X21290938Y65243172D01*
X21427735Y65447903D01*
X21521963Y65675389D01*
X21570000Y65916886D01*
X21570000Y66163114D01*
X21521963Y66404611D01*
X21427735Y66632097D01*
X21290938Y66836828D01*
X21116828Y67010938D01*
X20912097Y67147735D01*
X20684611Y67241963D01*
X20443114Y67290000D01*
X20196886Y67290000D01*
X19955389Y67241963D01*
X19727903Y67147735D01*
X19523172Y67010938D01*
X19349062Y66836828D01*
X19317773Y66790000D01*
X15032363Y66790000D01*
X14979776Y66868702D01*
X14798702Y67049776D01*
X14585781Y67192045D01*
X14349196Y67290042D01*
X14098039Y67340000D01*
X13841961Y67340000D01*
X13590804Y67290042D01*
X13354219Y67192045D01*
X13141298Y67049776D01*
X12960224Y66868702D01*
X12817955Y66655781D01*
X12719958Y66419196D01*
X12670000Y66168039D01*
X12670000Y65911961D01*
X12719958Y65660804D01*
X12817955Y65424219D01*
X12960224Y65211298D01*
X13141298Y65030224D01*
X13354219Y64887955D01*
X13590804Y64789958D01*
X13691140Y64770000D01*
X13590804Y64750042D01*
X13354219Y64652045D01*
X13141298Y64509776D01*
X12960224Y64328702D01*
X12817955Y64115781D01*
X12719958Y63879196D01*
X12670000Y63628039D01*
X12670000Y63371961D01*
X12719958Y63120804D01*
X12817955Y62884219D01*
X12960224Y62671298D01*
X13141298Y62490224D01*
X13354219Y62347955D01*
X13590804Y62249958D01*
X13841961Y62200000D01*
X14098039Y62200000D01*
X14349196Y62249958D01*
X14585781Y62347955D01*
X14798702Y62490224D01*
X14979776Y62671298D01*
X15032363Y62750000D01*
X19317773Y62750000D01*
X19349062Y62703172D01*
X19523172Y62529062D01*
X19727903Y62392265D01*
X19955389Y62298037D01*
X20196886Y62250000D01*
X20443114Y62250000D01*
X20575717Y62276377D01*
X20498353Y62199012D01*
X20443114Y62210000D01*
X20196886Y62210000D01*
X19955389Y62161963D01*
X19727903Y62067735D01*
X19523172Y61930938D01*
X19349062Y61756828D01*
X19212265Y61552097D01*
X19118037Y61324611D01*
X19070000Y61083114D01*
X19070000Y60836886D01*
X19118037Y60595389D01*
X19212265Y60367903D01*
X19349062Y60163172D01*
X19523172Y59989062D01*
X19727903Y59852265D01*
X19955389Y59758037D01*
X20196886Y59710000D01*
X20443114Y59710000D01*
X20684611Y59758037D01*
X20912097Y59852265D01*
X21116828Y59989062D01*
X21290938Y60163172D01*
X21427735Y60367903D01*
X21521963Y60595389D01*
X21570000Y60836886D01*
X21570000Y61083114D01*
X21559012Y61138353D01*
X24634286Y64213626D01*
X24650000Y64226522D01*
X24650001Y54090000D01*
X21322227Y54090000D01*
X21290938Y54136828D01*
X21116828Y54310938D01*
X20912097Y54447735D01*
X20687429Y54540796D01*
X20685307Y54541930D01*
X20506231Y54596252D01*
X20437651Y54603006D01*
X20410658Y54630000D01*
X20443114Y54630000D01*
X20684611Y54678037D01*
X20912097Y54772265D01*
X21116828Y54909062D01*
X21290938Y55083172D01*
X21427735Y55287903D01*
X21521963Y55515389D01*
X21570000Y55756886D01*
X21570000Y56003114D01*
X21521963Y56244611D01*
X21427735Y56472097D01*
X21290938Y56676828D01*
X21116828Y56850938D01*
X20912097Y56987735D01*
X20684611Y57081963D01*
X20443114Y57130000D01*
X20196886Y57130000D01*
X19955389Y57081963D01*
X19727903Y56987735D01*
X19523172Y56850938D01*
X19349062Y56676828D01*
X19212265Y56472097D01*
X19118037Y56244611D01*
X19070000Y56003114D01*
X19070000Y55970657D01*
X17386377Y57654280D01*
X17362893Y57682895D01*
X17248691Y57776619D01*
X17118399Y57846261D01*
X16977024Y57889147D01*
X16866833Y57900000D01*
X16866825Y57900000D01*
X16829998Y57903627D01*
X16793171Y57900000D01*
X13010661Y57900000D01*
X12367547Y58543114D01*
X19070000Y58543114D01*
X19070000Y58296886D01*
X19118037Y58055389D01*
X19212265Y57827903D01*
X19349062Y57623172D01*
X19523172Y57449062D01*
X19727903Y57312265D01*
X19955389Y57218037D01*
X20196886Y57170000D01*
X20443114Y57170000D01*
X20684611Y57218037D01*
X20912097Y57312265D01*
X21116828Y57449062D01*
X21290938Y57623172D01*
X21427735Y57827903D01*
X21521963Y58055389D01*
X21570000Y58296886D01*
X21570000Y58543114D01*
X21521963Y58784611D01*
X21427735Y59012097D01*
X21290938Y59216828D01*
X21116828Y59390938D01*
X20912097Y59527735D01*
X20684611Y59621963D01*
X20443114Y59670000D01*
X20196886Y59670000D01*
X19955389Y59621963D01*
X19727903Y59527735D01*
X19523172Y59390938D01*
X19349062Y59216828D01*
X19212265Y59012097D01*
X19118037Y58784611D01*
X19070000Y58543114D01*
X12367547Y58543114D01*
X10910000Y60000659D01*
X10910000Y66003173D01*
X10913627Y66040001D01*
X10910000Y66076829D01*
X10910000Y66076835D01*
X10899147Y66187026D01*
X10864809Y66300224D01*
X10856261Y66328401D01*
X10807730Y66419196D01*
X10786619Y66458693D01*
X10692895Y66572895D01*
X10664287Y66596373D01*
X9950659Y67310000D01*
X12714565Y70073906D01*
X12744029Y70018784D01*
X12800263Y69950263D01*
X12868784Y69894029D01*
X12946959Y69852243D01*
X13031785Y69826511D01*
X13120000Y69817823D01*
X14820000Y69817823D01*
X14908215Y69826511D01*
X14993041Y69852243D01*
X15071216Y69894029D01*
X15139737Y69950263D01*
X15195971Y70018784D01*
X15237757Y70096959D01*
X15263489Y70181785D01*
X15272177Y70270000D01*
X15272177Y71970000D01*
X15263489Y72058215D01*
X15237757Y72143041D01*
X15195971Y72221216D01*
X15139737Y72289737D01*
X15071216Y72345971D01*
X14993041Y72387757D01*
X14908215Y72413489D01*
X14820000Y72422177D01*
X14720000Y72422177D01*
X14720000Y76467773D01*
X14766828Y76499062D01*
X14940938Y76673172D01*
X15077735Y76877903D01*
X15171963Y77105389D01*
X15220000Y77346886D01*
X15220000Y77593114D01*
X15171963Y77834611D01*
X15077735Y78062097D01*
X14940938Y78266828D01*
X14766828Y78440938D01*
X14562097Y78577735D01*
X14334611Y78671963D01*
X14093114Y78720000D01*
X13846886Y78720000D01*
X13605389Y78671963D01*
X13377903Y78577735D01*
X13173172Y78440938D01*
X12999062Y78266828D01*
X12862265Y78062097D01*
X12768037Y77834611D01*
X12720000Y77593114D01*
X12720000Y77346886D01*
X12768037Y77105389D01*
X12862265Y76877903D01*
X12999062Y76673172D01*
X13173172Y76499062D01*
X13220000Y76467772D01*
X13220001Y72422177D01*
X13120000Y72422177D01*
X13031785Y72413489D01*
X12946959Y72387757D01*
X12868784Y72345971D01*
X12800263Y72289737D01*
X12744029Y72221216D01*
X12702243Y72143041D01*
X12676511Y72058215D01*
X12667823Y71970000D01*
X12667823Y71870458D01*
X12663172Y71870000D01*
X12663165Y71870000D01*
X12552974Y71859147D01*
X12411599Y71816261D01*
X12281307Y71746619D01*
X12226095Y71701307D01*
X12167105Y71652895D01*
X12143626Y71624286D01*
X8579341Y68060000D01*
X7412363Y68060000D01*
X7359776Y68138702D01*
X7178702Y68319776D01*
X6965781Y68462045D01*
X6729196Y68560042D01*
X6628860Y68580000D01*
X6729196Y68599958D01*
X6965781Y68697955D01*
X7178702Y68840224D01*
X7359776Y69021298D01*
X7502045Y69234219D01*
X7600042Y69470804D01*
X7650000Y69721961D01*
X7650000Y69978039D01*
X7600042Y70229196D01*
X7502045Y70465781D01*
X7359776Y70678702D01*
X7178702Y70859776D01*
X6965781Y71002045D01*
X6729196Y71100042D01*
X6478039Y71150000D01*
X6221961Y71150000D01*
X5970804Y71100042D01*
X5734219Y71002045D01*
X5521298Y70859776D01*
X5340224Y70678702D01*
X5197955Y70465781D01*
X5099958Y70229196D01*
X5050000Y69978039D01*
X5050000Y69721961D01*
X5099958Y69470804D01*
X5197955Y69234219D01*
X5340224Y69021298D01*
X5521298Y68840224D01*
X5734219Y68697955D01*
X5970804Y68599958D01*
X6071140Y68580000D01*
X5970804Y68560042D01*
X5734219Y68462045D01*
X5521298Y68319776D01*
X5340224Y68138702D01*
X5197955Y67925781D01*
X5099958Y67689196D01*
X5050000Y67438039D01*
X5050000Y67181961D01*
X5099958Y66930804D01*
X5197955Y66694219D01*
X5340224Y66481298D01*
X5521298Y66300224D01*
X5734219Y66157955D01*
X5941305Y66072177D01*
X5500000Y66072177D01*
X5411785Y66063489D01*
X5326959Y66037757D01*
X5248784Y65995971D01*
X5180263Y65939737D01*
X5124029Y65871216D01*
X5082243Y65793041D01*
X5056511Y65708215D01*
X5047823Y65620000D01*
X500000Y65620000D01*
X500000Y86584562D01*
X1529981Y86584562D01*
X1529981Y86135438D01*
X1617601Y85694943D01*
X1789473Y85280006D01*
X2038994Y84906573D01*
X2356573Y84588994D01*
X2730006Y84339473D01*
X3144943Y84167601D01*
X3585438Y84079981D01*
X4034562Y84079981D01*
X4475057Y84167601D01*
X4889994Y84339473D01*
X5263427Y84588994D01*
X5581006Y84906573D01*
X5785831Y85213114D01*
X12720000Y85213114D01*
X12720000Y84966886D01*
X12768037Y84725389D01*
X12862265Y84497903D01*
X12999062Y84293172D01*
X13173172Y84119062D01*
X13377903Y83982265D01*
X13605389Y83888037D01*
X13846886Y83840000D01*
X14093114Y83840000D01*
X14334611Y83888037D01*
X14562097Y83982265D01*
X14766828Y84119062D01*
X14940938Y84293172D01*
X15072454Y84490000D01*
X20347234Y84490000D01*
X20463711Y84315679D01*
X20665679Y84113711D01*
X20840000Y83997234D01*
X20840001Y79982767D01*
X20665679Y79866289D01*
X20463711Y79664321D01*
X20305027Y79426833D01*
X20195723Y79162949D01*
X20140000Y78882813D01*
X20140000Y78597187D01*
X20195723Y78317051D01*
X20305027Y78053167D01*
X20463711Y77815679D01*
X20665679Y77613711D01*
X20903167Y77455027D01*
X21167051Y77345723D01*
X21447187Y77290000D01*
X21732813Y77290000D01*
X21840000Y77311321D01*
X21839999Y72430660D01*
X19815715Y70406374D01*
X19787106Y70382895D01*
X19763627Y70354286D01*
X19763624Y70354283D01*
X19736131Y70320782D01*
X19693382Y70268693D01*
X19672271Y70229196D01*
X19623739Y70138400D01*
X19580853Y69997025D01*
X19566373Y69850000D01*
X19568128Y69832177D01*
X19520000Y69832177D01*
X19431785Y69823489D01*
X19346959Y69797757D01*
X19268784Y69755971D01*
X19200263Y69699737D01*
X19144029Y69631216D01*
X19102243Y69553041D01*
X19076511Y69468215D01*
X19067823Y69380000D01*
X19067823Y67780000D01*
X19076511Y67691785D01*
X19102243Y67606959D01*
X19144029Y67528784D01*
X19200263Y67460263D01*
X19268784Y67404029D01*
X19346959Y67362243D01*
X19431785Y67336511D01*
X19520000Y67327823D01*
X21120000Y67327823D01*
X21208215Y67336511D01*
X21293041Y67362243D01*
X21371216Y67404029D01*
X21439737Y67460263D01*
X21495971Y67528784D01*
X21537757Y67606959D01*
X21563489Y67691785D01*
X21572177Y67780000D01*
X21572177Y69380000D01*
X21563489Y69468215D01*
X21537757Y69553041D01*
X21495971Y69631216D01*
X21439737Y69699737D01*
X21371216Y69755971D01*
X21316094Y69785435D01*
X23094291Y71563630D01*
X23122894Y71587104D01*
X23146368Y71615707D01*
X23146375Y71615714D01*
X23216617Y71701305D01*
X23216618Y71701306D01*
X23286260Y71831598D01*
X23329146Y71972973D01*
X23339999Y72083164D01*
X23339999Y72083173D01*
X23343626Y72119998D01*
X23339999Y72156823D01*
X23339999Y77703174D01*
X23343626Y77740002D01*
X23339999Y77776829D01*
X23339999Y77776836D01*
X23329146Y77887027D01*
X23286260Y78028402D01*
X23216618Y78158694D01*
X23163328Y78223628D01*
X23146375Y78244285D01*
X23146373Y78244287D01*
X23122894Y78272896D01*
X23094285Y78296375D01*
X22999098Y78391562D01*
X23040000Y78597187D01*
X23040000Y78882813D01*
X22984277Y79162949D01*
X22874973Y79426833D01*
X22716289Y79664321D01*
X22514321Y79866289D01*
X22340000Y79982766D01*
X22340000Y83997234D01*
X22514321Y84113711D01*
X22716289Y84315679D01*
X22874973Y84553167D01*
X22984277Y84817051D01*
X23040000Y85097187D01*
X23040000Y85382813D01*
X22984277Y85662949D01*
X22874973Y85926833D01*
X22716289Y86164321D01*
X22514321Y86366289D01*
X22276833Y86524973D01*
X22132972Y86584562D01*
X39629981Y86584562D01*
X39629981Y86135438D01*
X39717601Y85694943D01*
X39889473Y85280006D01*
X40138994Y84906573D01*
X40456573Y84588994D01*
X40830006Y84339473D01*
X41244943Y84167601D01*
X41685438Y84079981D01*
X42134562Y84079981D01*
X42575057Y84167601D01*
X42989994Y84339473D01*
X43363427Y84588994D01*
X43681006Y84906573D01*
X43930527Y85280006D01*
X44102399Y85694943D01*
X44190019Y86135438D01*
X44190019Y86584562D01*
X44102399Y87025057D01*
X43930527Y87439994D01*
X43681006Y87813427D01*
X43363427Y88131006D01*
X42989994Y88380527D01*
X42575057Y88552399D01*
X42134562Y88640019D01*
X41685438Y88640019D01*
X41244943Y88552399D01*
X40830006Y88380527D01*
X40456573Y88131006D01*
X40138994Y87813427D01*
X39889473Y87439994D01*
X39717601Y87025057D01*
X39629981Y86584562D01*
X22132972Y86584562D01*
X22012949Y86634277D01*
X21732813Y86690000D01*
X21447187Y86690000D01*
X21167051Y86634277D01*
X20903167Y86524973D01*
X20665679Y86366289D01*
X20463711Y86164321D01*
X20347234Y85990000D01*
X14837766Y85990000D01*
X14766828Y86060938D01*
X14562097Y86197735D01*
X14334611Y86291963D01*
X14093114Y86340000D01*
X13846886Y86340000D01*
X13605389Y86291963D01*
X13377903Y86197735D01*
X13173172Y86060938D01*
X12999062Y85886828D01*
X12862265Y85682097D01*
X12768037Y85454611D01*
X12720000Y85213114D01*
X5785831Y85213114D01*
X5830527Y85280006D01*
X6002399Y85694943D01*
X6090019Y86135438D01*
X6090019Y86584562D01*
X6002399Y87025057D01*
X5830527Y87439994D01*
X5581006Y87813427D01*
X5263427Y88131006D01*
X4889994Y88380527D01*
X4475057Y88552399D01*
X4034562Y88640019D01*
X3585438Y88640019D01*
X3144943Y88552399D01*
X2730006Y88380527D01*
X2356573Y88131006D01*
X2038994Y87813427D01*
X1789473Y87439994D01*
X1617601Y87025057D01*
X1529981Y86584562D01*
X500000Y86584562D01*
X500000Y89670000D01*
X45220000Y89670000D01*
X45220001Y500000D01*
G36*
X29730000Y35249339D02*
G01*
X29730001Y30506855D01*
X29726639Y30459990D01*
X29734590Y30396575D01*
X29740854Y30332974D01*
X29743768Y30323366D01*
X29745018Y30313400D01*
X29765191Y30252747D01*
X29783740Y30191599D01*
X29788474Y30182742D01*
X29791643Y30173214D01*
X29823252Y30117677D01*
X29853382Y30061307D01*
X29859753Y30053544D01*
X29864720Y30044817D01*
X29906574Y29996493D01*
X29947106Y29947105D01*
X29983418Y29917304D01*
X32608578Y27427994D01*
X32625721Y27407105D01*
X32662038Y27377300D01*
X32669282Y27370431D01*
X32690524Y27353922D01*
X32739923Y27313381D01*
X32748779Y27308648D01*
X32756708Y27302485D01*
X32813852Y27273865D01*
X32870215Y27243739D01*
X32879826Y27240824D01*
X32888804Y27236327D01*
X32950426Y27219407D01*
X33011590Y27200853D01*
X33021584Y27199869D01*
X33031267Y27197210D01*
X33094989Y27192639D01*
X33121781Y27190000D01*
X33131774Y27190000D01*
X33178626Y27186639D01*
X33205433Y27190000D01*
X34497637Y27190000D01*
X34550224Y27111298D01*
X34731298Y26930224D01*
X34944219Y26787955D01*
X35180804Y26689958D01*
X35281140Y26670000D01*
X35180804Y26650042D01*
X34944219Y26552045D01*
X34731298Y26409776D01*
X34550224Y26228702D01*
X34497637Y26150000D01*
X33333414Y26150000D01*
X33296586Y26153627D01*
X33259758Y26150000D01*
X33259752Y26150000D01*
X33164404Y26140609D01*
X33149560Y26139147D01*
X33142829Y26137105D01*
X33008186Y26096261D01*
X32877894Y26026619D01*
X32763692Y25932895D01*
X32740213Y25904286D01*
X15895927Y9059999D01*
X12122659Y9059999D01*
X8599981Y12582676D01*
X8599981Y20895263D01*
X8599989Y20895182D01*
X8599989Y20895175D01*
X8610842Y20784984D01*
X8653728Y20643609D01*
X8723370Y20513317D01*
X8817094Y20399115D01*
X8845703Y20375636D01*
X11400000Y17821338D01*
X11400000Y17651961D01*
X11449958Y17400804D01*
X11547955Y17164219D01*
X11690224Y16951298D01*
X11871298Y16770224D01*
X12084219Y16627955D01*
X12320804Y16529958D01*
X12421140Y16510000D01*
X12320804Y16490042D01*
X12084219Y16392045D01*
X11871298Y16249776D01*
X11690224Y16068702D01*
X11547955Y15855781D01*
X11449958Y15619196D01*
X11400000Y15368039D01*
X11400000Y15111961D01*
X11449958Y14860804D01*
X11547955Y14624219D01*
X11690224Y14411298D01*
X11871298Y14230224D01*
X12084219Y14087955D01*
X12320804Y13989958D01*
X12421140Y13970000D01*
X12320804Y13950042D01*
X12084219Y13852045D01*
X11871298Y13709776D01*
X11690224Y13528702D01*
X11547955Y13315781D01*
X11449958Y13079196D01*
X11400000Y12828039D01*
X11400000Y12571961D01*
X11449958Y12320804D01*
X11547955Y12084219D01*
X11690224Y11871298D01*
X11871298Y11690224D01*
X12084219Y11547955D01*
X12320804Y11449958D01*
X12571961Y11400000D01*
X12828039Y11400000D01*
X13079196Y11449958D01*
X13315781Y11547955D01*
X13528702Y11690224D01*
X13709776Y11871298D01*
X13852045Y12084219D01*
X13950042Y12320804D01*
X14000000Y12571961D01*
X14000000Y12828039D01*
X13950042Y13079196D01*
X13852045Y13315781D01*
X13709776Y13528702D01*
X13528702Y13709776D01*
X13315781Y13852045D01*
X13079196Y13950042D01*
X12978860Y13970000D01*
X13079196Y13989958D01*
X13315781Y14087955D01*
X13528702Y14230224D01*
X13709776Y14411298D01*
X13762363Y14490000D01*
X13865254Y14490000D01*
X13902081Y14486373D01*
X13938908Y14490000D01*
X13938916Y14490000D01*
X14049107Y14500853D01*
X14190482Y14543739D01*
X14320774Y14613381D01*
X14434976Y14707105D01*
X14458460Y14735720D01*
X28444293Y28721551D01*
X28472895Y28745024D01*
X28496369Y28773627D01*
X28496376Y28773634D01*
X28566618Y28859225D01*
X28566619Y28859226D01*
X28636261Y28989518D01*
X28679147Y29130893D01*
X28690000Y29241084D01*
X28690000Y29241093D01*
X28693627Y29277918D01*
X28690000Y29314743D01*
X28690000Y34557773D01*
X28736828Y34589062D01*
X28910938Y34763172D01*
X29047735Y34967903D01*
X29141963Y35195389D01*
X29190000Y35436886D01*
X29190000Y35683114D01*
X29163624Y35815716D01*
X29730000Y35249339D01*
G37*
X29730000Y35249339D02*
X29730001Y30506855D01*
X29726639Y30459990D01*
X29734590Y30396575D01*
X29740854Y30332974D01*
X29743768Y30323366D01*
X29745018Y30313400D01*
X29765191Y30252747D01*
X29783740Y30191599D01*
X29788474Y30182742D01*
X29791643Y30173214D01*
X29823252Y30117677D01*
X29853382Y30061307D01*
X29859753Y30053544D01*
X29864720Y30044817D01*
X29906574Y29996493D01*
X29947106Y29947105D01*
X29983418Y29917304D01*
X32608578Y27427994D01*
X32625721Y27407105D01*
X32662038Y27377300D01*
X32669282Y27370431D01*
X32690524Y27353922D01*
X32739923Y27313381D01*
X32748779Y27308648D01*
X32756708Y27302485D01*
X32813852Y27273865D01*
X32870215Y27243739D01*
X32879826Y27240824D01*
X32888804Y27236327D01*
X32950426Y27219407D01*
X33011590Y27200853D01*
X33021584Y27199869D01*
X33031267Y27197210D01*
X33094989Y27192639D01*
X33121781Y27190000D01*
X33131774Y27190000D01*
X33178626Y27186639D01*
X33205433Y27190000D01*
X34497637Y27190000D01*
X34550224Y27111298D01*
X34731298Y26930224D01*
X34944219Y26787955D01*
X35180804Y26689958D01*
X35281140Y26670000D01*
X35180804Y26650042D01*
X34944219Y26552045D01*
X34731298Y26409776D01*
X34550224Y26228702D01*
X34497637Y26150000D01*
X33333414Y26150000D01*
X33296586Y26153627D01*
X33259758Y26150000D01*
X33259752Y26150000D01*
X33164404Y26140609D01*
X33149560Y26139147D01*
X33142829Y26137105D01*
X33008186Y26096261D01*
X32877894Y26026619D01*
X32763692Y25932895D01*
X32740213Y25904286D01*
X15895927Y9059999D01*
X12122659Y9059999D01*
X8599981Y12582676D01*
X8599981Y20895263D01*
X8599989Y20895182D01*
X8599989Y20895175D01*
X8610842Y20784984D01*
X8653728Y20643609D01*
X8723370Y20513317D01*
X8817094Y20399115D01*
X8845703Y20375636D01*
X11400000Y17821338D01*
X11400000Y17651961D01*
X11449958Y17400804D01*
X11547955Y17164219D01*
X11690224Y16951298D01*
X11871298Y16770224D01*
X12084219Y16627955D01*
X12320804Y16529958D01*
X12421140Y16510000D01*
X12320804Y16490042D01*
X12084219Y16392045D01*
X11871298Y16249776D01*
X11690224Y16068702D01*
X11547955Y15855781D01*
X11449958Y15619196D01*
X11400000Y15368039D01*
X11400000Y15111961D01*
X11449958Y14860804D01*
X11547955Y14624219D01*
X11690224Y14411298D01*
X11871298Y14230224D01*
X12084219Y14087955D01*
X12320804Y13989958D01*
X12421140Y13970000D01*
X12320804Y13950042D01*
X12084219Y13852045D01*
X11871298Y13709776D01*
X11690224Y13528702D01*
X11547955Y13315781D01*
X11449958Y13079196D01*
X11400000Y12828039D01*
X11400000Y12571961D01*
X11449958Y12320804D01*
X11547955Y12084219D01*
X11690224Y11871298D01*
X11871298Y11690224D01*
X12084219Y11547955D01*
X12320804Y11449958D01*
X12571961Y11400000D01*
X12828039Y11400000D01*
X13079196Y11449958D01*
X13315781Y11547955D01*
X13528702Y11690224D01*
X13709776Y11871298D01*
X13852045Y12084219D01*
X13950042Y12320804D01*
X14000000Y12571961D01*
X14000000Y12828039D01*
X13950042Y13079196D01*
X13852045Y13315781D01*
X13709776Y13528702D01*
X13528702Y13709776D01*
X13315781Y13852045D01*
X13079196Y13950042D01*
X12978860Y13970000D01*
X13079196Y13989958D01*
X13315781Y14087955D01*
X13528702Y14230224D01*
X13709776Y14411298D01*
X13762363Y14490000D01*
X13865254Y14490000D01*
X13902081Y14486373D01*
X13938908Y14490000D01*
X13938916Y14490000D01*
X14049107Y14500853D01*
X14190482Y14543739D01*
X14320774Y14613381D01*
X14434976Y14707105D01*
X14458460Y14735720D01*
X28444293Y28721551D01*
X28472895Y28745024D01*
X28496369Y28773627D01*
X28496376Y28773634D01*
X28566618Y28859225D01*
X28566619Y28859226D01*
X28636261Y28989518D01*
X28679147Y29130893D01*
X28690000Y29241084D01*
X28690000Y29241093D01*
X28693627Y29277918D01*
X28690000Y29314743D01*
X28690000Y34557773D01*
X28736828Y34589062D01*
X28910938Y34763172D01*
X29047735Y34967903D01*
X29141963Y35195389D01*
X29190000Y35436886D01*
X29190000Y35683114D01*
X29163624Y35815716D01*
X29730000Y35249339D01*
G36*
X14634677Y26150000D02*
G01*
X13762363Y26150000D01*
X13709776Y26228702D01*
X13528702Y26409776D01*
X13315781Y26552045D01*
X13079196Y26650042D01*
X12828039Y26700000D01*
X12571961Y26700000D01*
X12320804Y26650042D01*
X12084219Y26552045D01*
X11871298Y26409776D01*
X11690224Y26228702D01*
X11599999Y26093670D01*
X11599999Y28517342D01*
X16092658Y33009999D01*
X21147174Y33009999D01*
X21184001Y33006372D01*
X21220828Y33009999D01*
X21220836Y33009999D01*
X21331027Y33020852D01*
X21472402Y33063738D01*
X21602694Y33133380D01*
X21688366Y33203690D01*
X14634677Y26150000D01*
G37*
X14634677Y26150000D02*
X13762363Y26150000D01*
X13709776Y26228702D01*
X13528702Y26409776D01*
X13315781Y26552045D01*
X13079196Y26650042D01*
X12828039Y26700000D01*
X12571961Y26700000D01*
X12320804Y26650042D01*
X12084219Y26552045D01*
X11871298Y26409776D01*
X11690224Y26228702D01*
X11599999Y26093670D01*
X11599999Y28517342D01*
X16092658Y33009999D01*
X21147174Y33009999D01*
X21184001Y33006372D01*
X21220828Y33009999D01*
X21220836Y33009999D01*
X21331027Y33020852D01*
X21472402Y33063738D01*
X21602694Y33133380D01*
X21688366Y33203690D01*
X14634677Y26150000D01*
M02*
