M48
METRIC
T1C0.800
T2C0.900
T3C1.000
T4C1.100
%
G90
G05
T1
X12.7Y53.34
X12.7Y45.72
X34.29Y40.64
X36.83Y40.64
X39.37Y40.64
X41.91Y40.64
X34.29Y33.02
X41.91Y33.02
X20.32Y68.58
X20.32Y66.04
X20.32Y63.5
X20.32Y60.96
X20.32Y58.42
X20.32Y55.88
X20.32Y53.34
X20.32Y50.8
X20.32Y48.26
X20.32Y45.72
X20.32Y43.18
X20.32Y40.64
X20.32Y38.1
X20.32Y35.56
X27.94Y68.58
X27.94Y66.04
X27.94Y63.5
X27.94Y60.96
X27.94Y58.42
X27.94Y55.88
X27.94Y53.34
X27.94Y50.8
X27.94Y48.26
X27.94Y45.72
X27.94Y43.18
X27.94Y40.64
X27.94Y38.1
X27.94Y35.56
X34.29Y50.72
X34.29Y45.72
X13.97Y85.09
X13.97Y77.47
T2
X5.08Y38.1
X7.62Y38.1
T3
X34.29Y76.2
X36.83Y76.2
X40.64Y68.58
X40.64Y66.04
X40.64Y63.5
X6.35Y69.85
X6.35Y67.31
X6.35Y64.77
X12.7Y27.94
X12.7Y25.4
X12.7Y22.86
X12.7Y20.32
X12.7Y17.78
X12.7Y15.24
X12.7Y12.7
X12.7Y10.16
X35.56Y27.94
X35.56Y25.4
X35.56Y22.86
X35.56Y20.32
X35.56Y17.78
X35.56Y15.24
X35.56Y12.7
X13.97Y71.12
X13.97Y68.58
X13.97Y66.04
X13.97Y63.5
X6.35Y55.88
X6.35Y53.34
T4
X21.59Y85.24
X21.59Y78.74
X26.09Y85.24
X26.09Y78.74
T0
M30
